ISO-10303-21;
HEADER;
/* Generated by software containing ST-Developer
 * from STEP Tools, Inc. (www.steptools.com) 
 */
/* OPTION: using custom renumber hook */

FILE_DESCRIPTION(
/* description */ ('STEP AP242 Edition 2',
'CAx-IF Rec.Pracs.---Representation and Presentation of Product Manufa
cturing Information (PMI)---4.0---2014-10-13',
'CAx-IF Rec.Pracs.---3D Tessellated Geometry---0.4---2014-09-14','2;1',
'CAx-IF Rec.Pracs.---User Defined Attributes---1.5---2016-08-15'),
/* implementation_level */ '2;1');

FILE_NAME(
/* name */ 'Case',
/* time_stamp */ '2026-09-06T18:33:01Z',
/* author */ (''),
/* organization */ (''),
/* preprocessor_version */ 'ST-DEVELOPER v20',
/* originating_system */ 'ONSHAPE BY PTC INC, 1.220',
/* authorisation */ '  ');

FILE_SCHEMA (('AP242_MANAGED_MODEL_BASED_3D_ENGINEERING_MIM_LF { 1 0 10303 442 3 1 4 }'));
ENDSEC;

DATA;
#10=SHAPE_REPRESENTATION_RELATIONSHIP('','',#1418,#11);
#11=ADVANCED_BREP_SHAPE_REPRESENTATION('',(#1416),#2288);
#12=B_SPLINE_CURVE_WITH_KNOTS('',3,(#2223,#2224,#2225,#2226,#2227,#2228,
#2229),.UNSPECIFIED.,.F.,.F.,(4,1,1,1,4),(0.,0.00283234666868498,0.00566469333736996,
0.00849704000605494,0.0113293866747399),.UNSPECIFIED.);
#13=CYLINDRICAL_SURFACE('',#1469,0.0030660594);
#14=CYLINDRICAL_SURFACE('',#1470,0.0030660594);
#15=CYLINDRICAL_SURFACE('',#1471,0.0030660594);
#16=CYLINDRICAL_SURFACE('',#1472,0.0030660594);
#17=CYLINDRICAL_SURFACE('',#1483,0.006223);
#18=CYLINDRICAL_SURFACE('',#1501,0.00239151995488679);
#19=CYLINDRICAL_SURFACE('',#1502,0.00239151995488679);
#20=CYLINDRICAL_SURFACE('',#1503,0.00239151995488679);
#21=CYLINDRICAL_SURFACE('',#1504,0.00239151995488679);
#22=CYLINDRICAL_SURFACE('',#1505,0.00635);
#23=CYLINDRICAL_SURFACE('',#1506,0.00635);
#24=CYLINDRICAL_SURFACE('',#1507,0.00635);
#25=CYLINDRICAL_SURFACE('',#1508,0.00635);
#26=CIRCLE('',#1425,0.0030660594);
#27=CIRCLE('',#1426,0.0030660594);
#28=CIRCLE('',#1427,0.0030660594);
#29=CIRCLE('',#1428,0.0030660594);
#30=CIRCLE('',#1429,0.00635);
#31=CIRCLE('',#1430,0.00635);
#32=CIRCLE('',#1431,0.00635);
#33=CIRCLE('',#1432,0.00635);
#34=CIRCLE('',#1433,0.00239151995488679);
#35=CIRCLE('',#1434,0.00239151995488679);
#36=CIRCLE('',#1435,0.00239151995488679);
#37=CIRCLE('',#1436,0.00239151995488679);
#38=CIRCLE('',#1438,0.0030660594);
#39=CIRCLE('',#1439,0.0030660594);
#40=CIRCLE('',#1440,0.0030660594);
#41=CIRCLE('',#1441,0.0030660594);
#42=CIRCLE('',#1442,0.00239151995488679);
#43=CIRCLE('',#1443,0.00239151995488679);
#44=CIRCLE('',#1444,0.00239151995488679);
#45=CIRCLE('',#1445,0.00239151995488679);
#46=CIRCLE('',#1451,0.00635);
#47=CIRCLE('',#1452,0.00635);
#48=CIRCLE('',#1453,0.00635);
#49=CIRCLE('',#1454,0.00635);
#50=CIRCLE('',#1458,0.006223);
#51=CIRCLE('',#1479,0.006223);
#52=ORIENTED_EDGE('',*,*,#450,.F.);
#53=ORIENTED_EDGE('',*,*,#451,.T.);
#54=ORIENTED_EDGE('',*,*,#452,.T.);
#55=ORIENTED_EDGE('',*,*,#453,.T.);
#56=ORIENTED_EDGE('',*,*,#454,.T.);
#57=ORIENTED_EDGE('',*,*,#455,.T.);
#58=ORIENTED_EDGE('',*,*,#456,.F.);
#59=ORIENTED_EDGE('',*,*,#457,.T.);
#60=ORIENTED_EDGE('',*,*,#458,.T.);
#61=ORIENTED_EDGE('',*,*,#459,.T.);
#62=ORIENTED_EDGE('',*,*,#460,.F.);
#63=ORIENTED_EDGE('',*,*,#461,.F.);
#64=ORIENTED_EDGE('',*,*,#456,.T.);
#65=ORIENTED_EDGE('',*,*,#462,.T.);
#66=ORIENTED_EDGE('',*,*,#463,.T.);
#67=ORIENTED_EDGE('',*,*,#464,.F.);
#68=ORIENTED_EDGE('',*,*,#465,.T.);
#69=ORIENTED_EDGE('',*,*,#466,.T.);
#70=ORIENTED_EDGE('',*,*,#467,.T.);
#71=ORIENTED_EDGE('',*,*,#468,.F.);
#72=ORIENTED_EDGE('',*,*,#469,.F.);
#73=ORIENTED_EDGE('',*,*,#454,.F.);
#74=ORIENTED_EDGE('',*,*,#470,.T.);
#75=ORIENTED_EDGE('',*,*,#471,.F.);
#76=ORIENTED_EDGE('',*,*,#472,.F.);
#77=ORIENTED_EDGE('',*,*,#473,.F.);
#78=ORIENTED_EDGE('',*,*,#474,.T.);
#79=ORIENTED_EDGE('',*,*,#475,.F.);
#80=ORIENTED_EDGE('',*,*,#476,.F.);
#81=ORIENTED_EDGE('',*,*,#477,.T.);
#82=ORIENTED_EDGE('',*,*,#478,.T.);
#83=ORIENTED_EDGE('',*,*,#479,.T.);
#84=ORIENTED_EDGE('',*,*,#480,.F.);
#85=ORIENTED_EDGE('',*,*,#481,.T.);
#86=ORIENTED_EDGE('',*,*,#482,.F.);
#87=ORIENTED_EDGE('',*,*,#483,.T.);
#88=ORIENTED_EDGE('',*,*,#484,.T.);
#89=ORIENTED_EDGE('',*,*,#485,.T.);
#90=ORIENTED_EDGE('',*,*,#486,.T.);
#91=ORIENTED_EDGE('',*,*,#487,.T.);
#92=ORIENTED_EDGE('',*,*,#488,.T.);
#93=ORIENTED_EDGE('',*,*,#489,.T.);
#94=ORIENTED_EDGE('',*,*,#490,.T.);
#95=ORIENTED_EDGE('',*,*,#491,.T.);
#96=ORIENTED_EDGE('',*,*,#492,.F.);
#97=ORIENTED_EDGE('',*,*,#493,.T.);
#98=ORIENTED_EDGE('',*,*,#494,.T.);
#99=ORIENTED_EDGE('',*,*,#495,.T.);
#100=ORIENTED_EDGE('',*,*,#496,.T.);
#101=ORIENTED_EDGE('',*,*,#497,.T.);
#102=ORIENTED_EDGE('',*,*,#498,.F.);
#103=ORIENTED_EDGE('',*,*,#499,.T.);
#104=ORIENTED_EDGE('',*,*,#500,.T.);
#105=ORIENTED_EDGE('',*,*,#471,.T.);
#106=ORIENTED_EDGE('',*,*,#501,.F.);
#107=ORIENTED_EDGE('',*,*,#502,.F.);
#108=ORIENTED_EDGE('',*,*,#503,.T.);
#109=ORIENTED_EDGE('',*,*,#504,.F.);
#110=ORIENTED_EDGE('',*,*,#505,.T.);
#111=ORIENTED_EDGE('',*,*,#506,.F.);
#112=ORIENTED_EDGE('',*,*,#507,.T.);
#113=ORIENTED_EDGE('',*,*,#508,.F.);
#114=ORIENTED_EDGE('',*,*,#509,.F.);
#115=ORIENTED_EDGE('',*,*,#510,.F.);
#116=ORIENTED_EDGE('',*,*,#511,.F.);
#117=ORIENTED_EDGE('',*,*,#512,.T.);
#118=ORIENTED_EDGE('',*,*,#513,.T.);
#119=ORIENTED_EDGE('',*,*,#514,.T.);
#120=ORIENTED_EDGE('',*,*,#515,.T.);
#121=ORIENTED_EDGE('',*,*,#516,.T.);
#122=ORIENTED_EDGE('',*,*,#517,.F.);
#123=ORIENTED_EDGE('',*,*,#518,.T.);
#124=ORIENTED_EDGE('',*,*,#519,.F.);
#125=ORIENTED_EDGE('',*,*,#520,.F.);
#126=ORIENTED_EDGE('',*,*,#521,.F.);
#127=ORIENTED_EDGE('',*,*,#522,.T.);
#128=ORIENTED_EDGE('',*,*,#523,.T.);
#129=ORIENTED_EDGE('',*,*,#524,.F.);
#130=ORIENTED_EDGE('',*,*,#525,.T.);
#131=ORIENTED_EDGE('',*,*,#526,.T.);
#132=ORIENTED_EDGE('',*,*,#527,.T.);
#133=ORIENTED_EDGE('',*,*,#528,.T.);
#134=ORIENTED_EDGE('',*,*,#521,.T.);
#135=ORIENTED_EDGE('',*,*,#529,.T.);
#136=ORIENTED_EDGE('',*,*,#501,.T.);
#137=ORIENTED_EDGE('',*,*,#470,.F.);
#138=ORIENTED_EDGE('',*,*,#461,.T.);
#139=ORIENTED_EDGE('',*,*,#530,.F.);
#140=ORIENTED_EDGE('',*,*,#531,.T.);
#141=ORIENTED_EDGE('',*,*,#532,.T.);
#142=ORIENTED_EDGE('',*,*,#458,.F.);
#143=ORIENTED_EDGE('',*,*,#533,.T.);
#144=ORIENTED_EDGE('',*,*,#534,.F.);
#145=ORIENTED_EDGE('',*,*,#535,.F.);
#146=ORIENTED_EDGE('',*,*,#536,.F.);
#147=ORIENTED_EDGE('',*,*,#524,.T.);
#148=ORIENTED_EDGE('',*,*,#537,.F.);
#149=ORIENTED_EDGE('',*,*,#538,.T.);
#150=ORIENTED_EDGE('',*,*,#539,.T.);
#151=ORIENTED_EDGE('',*,*,#540,.T.);
#152=ORIENTED_EDGE('',*,*,#541,.F.);
#153=ORIENTED_EDGE('',*,*,#542,.T.);
#154=ORIENTED_EDGE('',*,*,#543,.F.);
#155=ORIENTED_EDGE('',*,*,#544,.T.);
#156=ORIENTED_EDGE('',*,*,#545,.F.);
#157=ORIENTED_EDGE('',*,*,#546,.T.);
#158=ORIENTED_EDGE('',*,*,#547,.F.);
#159=ORIENTED_EDGE('',*,*,#548,.T.);
#160=ORIENTED_EDGE('',*,*,#549,.F.);
#161=ORIENTED_EDGE('',*,*,#550,.T.);
#162=ORIENTED_EDGE('',*,*,#551,.T.);
#163=ORIENTED_EDGE('',*,*,#552,.F.);
#164=ORIENTED_EDGE('',*,*,#553,.F.);
#165=ORIENTED_EDGE('',*,*,#554,.T.);
#166=ORIENTED_EDGE('',*,*,#555,.F.);
#167=ORIENTED_EDGE('',*,*,#556,.T.);
#168=ORIENTED_EDGE('',*,*,#537,.T.);
#169=ORIENTED_EDGE('',*,*,#557,.F.);
#170=ORIENTED_EDGE('',*,*,#558,.F.);
#171=ORIENTED_EDGE('',*,*,#559,.F.);
#172=ORIENTED_EDGE('',*,*,#560,.T.);
#173=ORIENTED_EDGE('',*,*,#466,.F.);
#174=ORIENTED_EDGE('',*,*,#561,.F.);
#175=ORIENTED_EDGE('',*,*,#472,.T.);
#176=ORIENTED_EDGE('',*,*,#500,.F.);
#177=ORIENTED_EDGE('',*,*,#562,.F.);
#178=ORIENTED_EDGE('',*,*,#453,.F.);
#179=ORIENTED_EDGE('',*,*,#563,.T.);
#180=ORIENTED_EDGE('',*,*,#564,.F.);
#181=ORIENTED_EDGE('',*,*,#565,.T.);
#182=ORIENTED_EDGE('',*,*,#566,.F.);
#183=ORIENTED_EDGE('',*,*,#553,.T.);
#184=ORIENTED_EDGE('',*,*,#567,.T.);
#185=ORIENTED_EDGE('',*,*,#568,.T.);
#186=ORIENTED_EDGE('',*,*,#467,.F.);
#187=ORIENTED_EDGE('',*,*,#560,.F.);
#188=ORIENTED_EDGE('',*,*,#569,.T.);
#189=ORIENTED_EDGE('',*,*,#570,.F.);
#190=ORIENTED_EDGE('',*,*,#571,.F.);
#191=ORIENTED_EDGE('',*,*,#572,.T.);
#192=ORIENTED_EDGE('',*,*,#573,.F.);
#193=ORIENTED_EDGE('',*,*,#574,.F.);
#194=ORIENTED_EDGE('',*,*,#575,.T.);
#195=ORIENTED_EDGE('',*,*,#576,.F.);
#196=ORIENTED_EDGE('',*,*,#564,.T.);
#197=ORIENTED_EDGE('',*,*,#577,.F.);
#198=ORIENTED_EDGE('',*,*,#538,.F.);
#199=ORIENTED_EDGE('',*,*,#556,.F.);
#200=ORIENTED_EDGE('',*,*,#578,.T.);
#201=ORIENTED_EDGE('',*,*,#579,.F.);
#202=ORIENTED_EDGE('',*,*,#571,.T.);
#203=ORIENTED_EDGE('',*,*,#580,.T.);
#204=ORIENTED_EDGE('',*,*,#581,.T.);
#205=ORIENTED_EDGE('',*,*,#557,.T.);
#206=ORIENTED_EDGE('',*,*,#540,.F.);
#207=ORIENTED_EDGE('',*,*,#582,.F.);
#208=ORIENTED_EDGE('',*,*,#583,.T.);
#209=ORIENTED_EDGE('',*,*,#584,.F.);
#210=ORIENTED_EDGE('',*,*,#473,.T.);
#211=ORIENTED_EDGE('',*,*,#561,.T.);
#212=ORIENTED_EDGE('',*,*,#465,.F.);
#213=ORIENTED_EDGE('',*,*,#585,.F.);
#214=ORIENTED_EDGE('',*,*,#586,.T.);
#215=ORIENTED_EDGE('',*,*,#526,.F.);
#216=ORIENTED_EDGE('',*,*,#587,.T.);
#217=ORIENTED_EDGE('',*,*,#567,.F.);
#218=ORIENTED_EDGE('',*,*,#563,.F.);
#219=ORIENTED_EDGE('',*,*,#452,.F.);
#220=ORIENTED_EDGE('',*,*,#588,.F.);
#221=ORIENTED_EDGE('',*,*,#533,.F.);
#222=ORIENTED_EDGE('',*,*,#457,.F.);
#223=ORIENTED_EDGE('',*,*,#468,.T.);
#224=ORIENTED_EDGE('',*,*,#568,.F.);
#225=ORIENTED_EDGE('',*,*,#587,.F.);
#226=ORIENTED_EDGE('',*,*,#525,.F.);
#227=ORIENTED_EDGE('',*,*,#536,.T.);
#228=ORIENTED_EDGE('',*,*,#589,.F.);
#229=ORIENTED_EDGE('',*,*,#590,.F.);
#230=ORIENTED_EDGE('',*,*,#591,.T.);
#231=ORIENTED_EDGE('',*,*,#592,.T.);
#232=ORIENTED_EDGE('',*,*,#450,.T.);
#233=ORIENTED_EDGE('',*,*,#562,.T.);
#234=ORIENTED_EDGE('',*,*,#502,.T.);
#235=ORIENTED_EDGE('',*,*,#529,.F.);
#236=ORIENTED_EDGE('',*,*,#520,.T.);
#237=ORIENTED_EDGE('',*,*,#486,.F.);
#238=ORIENTED_EDGE('',*,*,#593,.T.);
#239=ORIENTED_EDGE('',*,*,#541,.T.);
#240=ORIENTED_EDGE('',*,*,#594,.T.);
#241=ORIENTED_EDGE('',*,*,#595,.F.);
#242=ORIENTED_EDGE('',*,*,#596,.T.);
#243=ORIENTED_EDGE('',*,*,#597,.T.);
#244=ORIENTED_EDGE('',*,*,#598,.F.);
#245=ORIENTED_EDGE('',*,*,#482,.T.);
#246=ORIENTED_EDGE('',*,*,#599,.T.);
#247=ORIENTED_EDGE('',*,*,#505,.F.);
#248=ORIENTED_EDGE('',*,*,#600,.T.);
#249=ORIENTED_EDGE('',*,*,#601,.T.);
#250=ORIENTED_EDGE('',*,*,#509,.T.);
#251=ORIENTED_EDGE('',*,*,#602,.T.);
#252=ORIENTED_EDGE('',*,*,#478,.F.);
#253=ORIENTED_EDGE('',*,*,#480,.T.);
#254=ORIENTED_EDGE('',*,*,#603,.T.);
#255=ORIENTED_EDGE('',*,*,#507,.F.);
#256=ORIENTED_EDGE('',*,*,#604,.T.);
#257=ORIENTED_EDGE('',*,*,#605,.T.);
#258=ORIENTED_EDGE('',*,*,#503,.F.);
#259=ORIENTED_EDGE('',*,*,#606,.T.);
#260=ORIENTED_EDGE('',*,*,#476,.T.);
#261=ORIENTED_EDGE('',*,*,#602,.F.);
#262=ORIENTED_EDGE('',*,*,#508,.T.);
#263=ORIENTED_EDGE('',*,*,#603,.F.);
#264=ORIENTED_EDGE('',*,*,#479,.F.);
#265=ORIENTED_EDGE('',*,*,#604,.F.);
#266=ORIENTED_EDGE('',*,*,#506,.T.);
#267=ORIENTED_EDGE('',*,*,#599,.F.);
#268=ORIENTED_EDGE('',*,*,#481,.F.);
#269=ORIENTED_EDGE('',*,*,#606,.F.);
#270=ORIENTED_EDGE('',*,*,#510,.T.);
#271=ORIENTED_EDGE('',*,*,#601,.F.);
#272=ORIENTED_EDGE('',*,*,#477,.F.);
#273=ORIENTED_EDGE('',*,*,#600,.F.);
#274=ORIENTED_EDGE('',*,*,#504,.T.);
#275=ORIENTED_EDGE('',*,*,#605,.F.);
#276=ORIENTED_EDGE('',*,*,#483,.F.);
#277=ORIENTED_EDGE('',*,*,#549,.T.);
#278=ORIENTED_EDGE('',*,*,#607,.T.);
#279=ORIENTED_EDGE('',*,*,#596,.F.);
#280=ORIENTED_EDGE('',*,*,#608,.F.);
#281=ORIENTED_EDGE('',*,*,#608,.T.);
#282=ORIENTED_EDGE('',*,*,#595,.T.);
#283=ORIENTED_EDGE('',*,*,#609,.F.);
#284=ORIENTED_EDGE('',*,*,#550,.F.);
#285=ORIENTED_EDGE('',*,*,#609,.T.);
#286=ORIENTED_EDGE('',*,*,#598,.T.);
#287=ORIENTED_EDGE('',*,*,#610,.F.);
#288=ORIENTED_EDGE('',*,*,#551,.F.);
#289=ORIENTED_EDGE('',*,*,#552,.T.);
#290=ORIENTED_EDGE('',*,*,#610,.T.);
#291=ORIENTED_EDGE('',*,*,#597,.F.);
#292=ORIENTED_EDGE('',*,*,#607,.F.);
#293=ORIENTED_EDGE('',*,*,#543,.T.);
#294=ORIENTED_EDGE('',*,*,#611,.T.);
#295=ORIENTED_EDGE('',*,*,#484,.F.);
#296=ORIENTED_EDGE('',*,*,#612,.T.);
#297=ORIENTED_EDGE('',*,*,#547,.T.);
#298=ORIENTED_EDGE('',*,*,#613,.T.);
#299=ORIENTED_EDGE('',*,*,#614,.F.);
#300=ORIENTED_EDGE('',*,*,#615,.T.);
#301=ORIENTED_EDGE('',*,*,#488,.F.);
#302=ORIENTED_EDGE('',*,*,#616,.T.);
#303=ORIENTED_EDGE('',*,*,#545,.T.);
#304=ORIENTED_EDGE('',*,*,#617,.T.);
#305=ORIENTED_EDGE('',*,*,#490,.F.);
#306=ORIENTED_EDGE('',*,*,#618,.T.);
#307=ORIENTED_EDGE('',*,*,#535,.T.);
#308=ORIENTED_EDGE('',*,*,#619,.T.);
#309=ORIENTED_EDGE('',*,*,#620,.T.);
#310=ORIENTED_EDGE('',*,*,#527,.F.);
#311=ORIENTED_EDGE('',*,*,#621,.F.);
#312=ORIENTED_EDGE('',*,*,#622,.T.);
#313=ORIENTED_EDGE('',*,*,#531,.F.);
#314=ORIENTED_EDGE('',*,*,#589,.T.);
#315=ORIENTED_EDGE('',*,*,#574,.T.);
#316=ORIENTED_EDGE('',*,*,#623,.T.);
#317=ORIENTED_EDGE('',*,*,#624,.T.);
#318=ORIENTED_EDGE('',*,*,#582,.T.);
#319=ORIENTED_EDGE('',*,*,#539,.F.);
#320=ORIENTED_EDGE('',*,*,#577,.T.);
#321=ORIENTED_EDGE('',*,*,#614,.T.);
#322=ORIENTED_EDGE('',*,*,#625,.T.);
#323=ORIENTED_EDGE('',*,*,#575,.F.);
#324=ORIENTED_EDGE('',*,*,#559,.T.);
#325=ORIENTED_EDGE('',*,*,#626,.T.);
#326=ORIENTED_EDGE('',*,*,#627,.F.);
#327=ORIENTED_EDGE('',*,*,#569,.F.);
#328=ORIENTED_EDGE('',*,*,#628,.F.);
#329=ORIENTED_EDGE('',*,*,#580,.F.);
#330=ORIENTED_EDGE('',*,*,#570,.T.);
#331=ORIENTED_EDGE('',*,*,#627,.T.);
#332=ORIENTED_EDGE('',*,*,#629,.F.);
#333=ORIENTED_EDGE('',*,*,#623,.F.);
#334=ORIENTED_EDGE('',*,*,#573,.T.);
#335=ORIENTED_EDGE('',*,*,#630,.T.);
#336=ORIENTED_EDGE('',*,*,#579,.T.);
#337=ORIENTED_EDGE('',*,*,#631,.T.);
#338=ORIENTED_EDGE('',*,*,#630,.F.);
#339=ORIENTED_EDGE('',*,*,#572,.F.);
#340=ORIENTED_EDGE('',*,*,#632,.F.);
#341=ORIENTED_EDGE('',*,*,#554,.F.);
#342=ORIENTED_EDGE('',*,*,#566,.T.);
#343=ORIENTED_EDGE('',*,*,#633,.T.);
#344=ORIENTED_EDGE('',*,*,#576,.T.);
#345=ORIENTED_EDGE('',*,*,#634,.T.);
#346=ORIENTED_EDGE('',*,*,#633,.F.);
#347=ORIENTED_EDGE('',*,*,#565,.F.);
#348=ORIENTED_EDGE('',*,*,#555,.T.);
#349=ORIENTED_EDGE('',*,*,#632,.T.);
#350=ORIENTED_EDGE('',*,*,#634,.F.);
#351=ORIENTED_EDGE('',*,*,#578,.F.);
#352=ORIENTED_EDGE('',*,*,#624,.F.);
#353=ORIENTED_EDGE('',*,*,#629,.T.);
#354=ORIENTED_EDGE('',*,*,#631,.F.);
#355=ORIENTED_EDGE('',*,*,#583,.F.);
#356=ORIENTED_EDGE('',*,*,#626,.F.);
#357=ORIENTED_EDGE('',*,*,#558,.T.);
#358=ORIENTED_EDGE('',*,*,#581,.F.);
#359=ORIENTED_EDGE('',*,*,#628,.T.);
#360=ORIENTED_EDGE('',*,*,#534,.T.);
#361=ORIENTED_EDGE('',*,*,#523,.F.);
#362=ORIENTED_EDGE('',*,*,#635,.F.);
#363=ORIENTED_EDGE('',*,*,#619,.F.);
#364=ORIENTED_EDGE('',*,*,#620,.F.);
#365=ORIENTED_EDGE('',*,*,#635,.T.);
#366=ORIENTED_EDGE('',*,*,#522,.F.);
#367=ORIENTED_EDGE('',*,*,#528,.F.);
#368=ORIENTED_EDGE('',*,*,#622,.F.);
#369=ORIENTED_EDGE('',*,*,#636,.T.);
#370=ORIENTED_EDGE('',*,*,#459,.F.);
#371=ORIENTED_EDGE('',*,*,#532,.F.);
#372=ORIENTED_EDGE('',*,*,#530,.T.);
#373=ORIENTED_EDGE('',*,*,#460,.T.);
#374=ORIENTED_EDGE('',*,*,#636,.F.);
#375=ORIENTED_EDGE('',*,*,#621,.T.);
#376=ORIENTED_EDGE('',*,*,#511,.T.);
#377=ORIENTED_EDGE('',*,*,#637,.T.);
#378=ORIENTED_EDGE('',*,*,#494,.F.);
#379=ORIENTED_EDGE('',*,*,#638,.T.);
#380=ORIENTED_EDGE('',*,*,#492,.T.);
#381=ORIENTED_EDGE('',*,*,#639,.T.);
#382=ORIENTED_EDGE('',*,*,#513,.F.);
#383=ORIENTED_EDGE('',*,*,#640,.T.);
#384=ORIENTED_EDGE('',*,*,#515,.F.);
#385=ORIENTED_EDGE('',*,*,#641,.T.);
#386=ORIENTED_EDGE('',*,*,#498,.T.);
#387=ORIENTED_EDGE('',*,*,#642,.T.);
#388=ORIENTED_EDGE('',*,*,#517,.T.);
#389=ORIENTED_EDGE('',*,*,#643,.T.);
#390=ORIENTED_EDGE('',*,*,#496,.F.);
#391=ORIENTED_EDGE('',*,*,#644,.T.);
#392=ORIENTED_EDGE('',*,*,#514,.F.);
#393=ORIENTED_EDGE('',*,*,#639,.F.);
#394=ORIENTED_EDGE('',*,*,#499,.F.);
#395=ORIENTED_EDGE('',*,*,#641,.F.);
#396=ORIENTED_EDGE('',*,*,#516,.F.);
#397=ORIENTED_EDGE('',*,*,#642,.F.);
#398=ORIENTED_EDGE('',*,*,#497,.F.);
#399=ORIENTED_EDGE('',*,*,#643,.F.);
#400=ORIENTED_EDGE('',*,*,#518,.F.);
#401=ORIENTED_EDGE('',*,*,#644,.F.);
#402=ORIENTED_EDGE('',*,*,#495,.F.);
#403=ORIENTED_EDGE('',*,*,#637,.F.);
#404=ORIENTED_EDGE('',*,*,#512,.F.);
#405=ORIENTED_EDGE('',*,*,#638,.F.);
#406=ORIENTED_EDGE('',*,*,#493,.F.);
#407=ORIENTED_EDGE('',*,*,#640,.F.);
#408=ORIENTED_EDGE('',*,*,#542,.F.);
#409=ORIENTED_EDGE('',*,*,#593,.F.);
#410=ORIENTED_EDGE('',*,*,#485,.F.);
#411=ORIENTED_EDGE('',*,*,#611,.F.);
#412=ORIENTED_EDGE('',*,*,#544,.F.);
#413=ORIENTED_EDGE('',*,*,#612,.F.);
#414=ORIENTED_EDGE('',*,*,#491,.F.);
#415=ORIENTED_EDGE('',*,*,#617,.F.);
#416=ORIENTED_EDGE('',*,*,#546,.F.);
#417=ORIENTED_EDGE('',*,*,#618,.F.);
#418=ORIENTED_EDGE('',*,*,#489,.F.);
#419=ORIENTED_EDGE('',*,*,#615,.F.);
#420=ORIENTED_EDGE('',*,*,#625,.F.);
#421=ORIENTED_EDGE('',*,*,#613,.F.);
#422=ORIENTED_EDGE('',*,*,#548,.F.);
#423=ORIENTED_EDGE('',*,*,#616,.F.);
#424=ORIENTED_EDGE('',*,*,#487,.F.);
#425=ORIENTED_EDGE('',*,*,#594,.F.);
#426=ORIENTED_EDGE('',*,*,#645,.F.);
#427=ORIENTED_EDGE('',*,*,#590,.T.);
#428=ORIENTED_EDGE('',*,*,#519,.T.);
#429=ORIENTED_EDGE('',*,*,#586,.F.);
#430=ORIENTED_EDGE('',*,*,#588,.T.);
#431=ORIENTED_EDGE('',*,*,#451,.F.);
#432=ORIENTED_EDGE('',*,*,#592,.F.);
#433=ORIENTED_EDGE('',*,*,#646,.T.);
#434=ORIENTED_EDGE('',*,*,#585,.T.);
#435=ORIENTED_EDGE('',*,*,#646,.F.);
#436=ORIENTED_EDGE('',*,*,#591,.F.);
#437=ORIENTED_EDGE('',*,*,#645,.T.);
#438=ORIENTED_EDGE('',*,*,#455,.F.);
#439=ORIENTED_EDGE('',*,*,#469,.T.);
#440=ORIENTED_EDGE('',*,*,#647,.T.);
#441=ORIENTED_EDGE('',*,*,#462,.F.);
#442=ORIENTED_EDGE('',*,*,#464,.T.);
#443=ORIENTED_EDGE('',*,*,#648,.F.);
#444=ORIENTED_EDGE('',*,*,#474,.F.);
#445=ORIENTED_EDGE('',*,*,#584,.T.);
#446=ORIENTED_EDGE('',*,*,#647,.F.);
#447=ORIENTED_EDGE('',*,*,#475,.T.);
#448=ORIENTED_EDGE('',*,*,#648,.T.);
#449=ORIENTED_EDGE('',*,*,#463,.F.);
#450=EDGE_CURVE('',#649,#650,#782,.T.);
#451=EDGE_CURVE('',#649,#651,#783,.T.);
#452=EDGE_CURVE('',#651,#652,#784,.T.);
#453=EDGE_CURVE('',#652,#650,#785,.T.);
#454=EDGE_CURVE('',#653,#654,#786,.T.);
#455=EDGE_CURVE('',#654,#655,#787,.T.);
#456=EDGE_CURVE('',#656,#655,#788,.T.);
#457=EDGE_CURVE('',#656,#657,#789,.T.);
#458=EDGE_CURVE('',#657,#658,#790,.T.);
#459=EDGE_CURVE('',#658,#659,#791,.T.);
#460=EDGE_CURVE('',#660,#659,#792,.T.);
#461=EDGE_CURVE('',#653,#660,#793,.T.);
#462=EDGE_CURVE('',#655,#661,#794,.T.);
#463=EDGE_CURVE('',#661,#662,#795,.T.);
#464=EDGE_CURVE('',#663,#662,#796,.T.);
#465=EDGE_CURVE('',#663,#664,#797,.T.);
#466=EDGE_CURVE('',#664,#665,#798,.T.);
#467=EDGE_CURVE('',#665,#666,#799,.T.);
#468=EDGE_CURVE('',#656,#666,#800,.T.);
#469=EDGE_CURVE('',#654,#667,#801,.T.);
#470=EDGE_CURVE('',#653,#668,#802,.T.);
#471=EDGE_CURVE('',#669,#668,#803,.T.);
#472=EDGE_CURVE('',#670,#669,#804,.T.);
#473=EDGE_CURVE('',#671,#670,#805,.T.);
#474=EDGE_CURVE('',#671,#672,#806,.T.);
#475=EDGE_CURVE('',#667,#672,#807,.T.);
#476=EDGE_CURVE('',#673,#674,#808,.T.);
#477=EDGE_CURVE('',#673,#675,#26,.T.);
#478=EDGE_CURVE('',#675,#676,#809,.T.);
#479=EDGE_CURVE('',#676,#677,#27,.T.);
#480=EDGE_CURVE('',#678,#677,#810,.T.);
#481=EDGE_CURVE('',#678,#679,#28,.T.);
#482=EDGE_CURVE('',#680,#679,#811,.T.);
#483=EDGE_CURVE('',#680,#674,#29,.T.);
#484=EDGE_CURVE('',#681,#682,#812,.T.);
#485=EDGE_CURVE('',#682,#683,#30,.F.);
#486=EDGE_CURVE('',#683,#684,#813,.T.);
#487=EDGE_CURVE('',#684,#685,#31,.F.);
#488=EDGE_CURVE('',#685,#686,#814,.T.);
#489=EDGE_CURVE('',#686,#687,#32,.F.);
#490=EDGE_CURVE('',#687,#688,#815,.T.);
#491=EDGE_CURVE('',#688,#681,#33,.F.);
#492=EDGE_CURVE('',#689,#690,#816,.T.);
#493=EDGE_CURVE('',#689,#691,#34,.T.);
#494=EDGE_CURVE('',#691,#692,#817,.T.);
#495=EDGE_CURVE('',#692,#693,#35,.T.);
#496=EDGE_CURVE('',#693,#694,#818,.T.);
#497=EDGE_CURVE('',#694,#695,#36,.T.);
#498=EDGE_CURVE('',#696,#695,#819,.T.);
#499=EDGE_CURVE('',#696,#690,#37,.T.);
#500=EDGE_CURVE('',#697,#669,#820,.T.);
#501=EDGE_CURVE('',#698,#668,#821,.T.);
#502=EDGE_CURVE('',#697,#698,#822,.T.);
#503=EDGE_CURVE('',#699,#700,#823,.T.);
#504=EDGE_CURVE('',#701,#700,#38,.T.);
#505=EDGE_CURVE('',#701,#702,#824,.T.);
#506=EDGE_CURVE('',#703,#702,#39,.T.);
#507=EDGE_CURVE('',#703,#704,#825,.T.);
#508=EDGE_CURVE('',#705,#704,#40,.T.);
#509=EDGE_CURVE('',#706,#705,#826,.T.);
#510=EDGE_CURVE('',#699,#706,#41,.T.);
#511=EDGE_CURVE('',#707,#708,#827,.T.);
#512=EDGE_CURVE('',#707,#709,#42,.T.);
#513=EDGE_CURVE('',#709,#710,#828,.T.);
#514=EDGE_CURVE('',#710,#711,#43,.T.);
#515=EDGE_CURVE('',#711,#712,#829,.T.);
#516=EDGE_CURVE('',#712,#713,#44,.T.);
#517=EDGE_CURVE('',#714,#713,#830,.T.);
#518=EDGE_CURVE('',#714,#708,#45,.T.);
#519=EDGE_CURVE('',#715,#716,#831,.T.);
#520=EDGE_CURVE('',#717,#715,#832,.T.);
#521=EDGE_CURVE('',#718,#717,#833,.T.);
#522=EDGE_CURVE('',#718,#719,#834,.T.);
#523=EDGE_CURVE('',#719,#720,#835,.T.);
#524=EDGE_CURVE('',#721,#720,#836,.T.);
#525=EDGE_CURVE('',#721,#722,#837,.T.);
#526=EDGE_CURVE('',#722,#716,#838,.T.);
#527=EDGE_CURVE('',#723,#724,#839,.T.);
#528=EDGE_CURVE('',#724,#718,#840,.T.);
#529=EDGE_CURVE('',#717,#698,#841,.T.);
#530=EDGE_CURVE('',#723,#660,#842,.T.);
#531=EDGE_CURVE('',#725,#726,#843,.T.);
#532=EDGE_CURVE('',#726,#658,#844,.T.);
#533=EDGE_CURVE('',#657,#725,#845,.T.);
#534=EDGE_CURVE('',#727,#720,#846,.T.);
#535=EDGE_CURVE('',#728,#727,#847,.T.);
#536=EDGE_CURVE('',#721,#728,#848,.T.);
#537=EDGE_CURVE('',#729,#730,#849,.T.);
#538=EDGE_CURVE('',#729,#731,#850,.T.);
#539=EDGE_CURVE('',#731,#732,#851,.T.);
#540=EDGE_CURVE('',#732,#730,#852,.T.);
#541=EDGE_CURVE('',#733,#734,#853,.T.);
#542=EDGE_CURVE('',#733,#735,#46,.T.);
#543=EDGE_CURVE('',#736,#735,#854,.T.);
#544=EDGE_CURVE('',#736,#737,#47,.T.);
#545=EDGE_CURVE('',#738,#737,#855,.T.);
#546=EDGE_CURVE('',#738,#739,#48,.T.);
#547=EDGE_CURVE('',#740,#739,#856,.T.);
#548=EDGE_CURVE('',#740,#734,#49,.T.);
#549=EDGE_CURVE('',#741,#742,#857,.T.);
#550=EDGE_CURVE('',#741,#743,#858,.T.);
#551=EDGE_CURVE('',#743,#744,#859,.T.);
#552=EDGE_CURVE('',#742,#744,#860,.T.);
#553=EDGE_CURVE('',#745,#746,#861,.T.);
#554=EDGE_CURVE('',#745,#747,#862,.T.);
#555=EDGE_CURVE('',#748,#747,#863,.T.);
#556=EDGE_CURVE('',#748,#729,#864,.T.);
#557=EDGE_CURVE('',#749,#730,#865,.T.);
#558=EDGE_CURVE('',#750,#749,#866,.T.);
#559=EDGE_CURVE('',#751,#750,#867,.T.);
#560=EDGE_CURVE('',#751,#665,#868,.T.);
#561=EDGE_CURVE('',#670,#664,#869,.T.);
#562=EDGE_CURVE('',#650,#697,#870,.T.);
#563=EDGE_CURVE('',#652,#746,#871,.T.);
#564=EDGE_CURVE('',#752,#753,#872,.T.);
#565=EDGE_CURVE('',#752,#754,#873,.T.);
#566=EDGE_CURVE('',#745,#754,#874,.T.);
#567=EDGE_CURVE('',#746,#755,#875,.T.);
#568=EDGE_CURVE('',#755,#666,#876,.T.);
#569=EDGE_CURVE('',#751,#756,#877,.T.);
#570=EDGE_CURVE('',#757,#756,#878,.T.);
#571=EDGE_CURVE('',#758,#757,#879,.T.);
#572=EDGE_CURVE('',#758,#759,#880,.T.);
#573=EDGE_CURVE('',#760,#759,#881,.T.);
#574=EDGE_CURVE('',#753,#760,#882,.T.);
#575=EDGE_CURVE('',#761,#761,#50,.T.);
#576=EDGE_CURVE('',#752,#762,#883,.T.);
#577=EDGE_CURVE('',#731,#753,#884,.T.);
#578=EDGE_CURVE('',#748,#762,#885,.T.);
#579=EDGE_CURVE('',#758,#763,#886,.T.);
#580=EDGE_CURVE('',#757,#764,#887,.T.);
#581=EDGE_CURVE('',#764,#749,#888,.T.);
#582=EDGE_CURVE('',#765,#732,#889,.T.);
#583=EDGE_CURVE('',#765,#763,#890,.T.);
#584=EDGE_CURVE('',#671,#663,#891,.T.);
#585=EDGE_CURVE('',#766,#767,#892,.T.);
#586=EDGE_CURVE('',#766,#716,#893,.T.);
#587=EDGE_CURVE('',#722,#755,#894,.T.);
#588=EDGE_CURVE('',#767,#651,#895,.T.);
#589=EDGE_CURVE('',#725,#728,#896,.T.);
#590=EDGE_CURVE('',#768,#715,#897,.T.);
#591=EDGE_CURVE('',#768,#769,#898,.T.);
#592=EDGE_CURVE('',#769,#649,#899,.T.);
#593=EDGE_CURVE('',#683,#733,#900,.F.);
#594=EDGE_CURVE('',#734,#684,#901,.T.);
#595=EDGE_CURVE('',#770,#771,#902,.T.);
#596=EDGE_CURVE('',#770,#772,#903,.T.);
#597=EDGE_CURVE('',#772,#773,#904,.T.);
#598=EDGE_CURVE('',#771,#773,#905,.T.);
#599=EDGE_CURVE('',#679,#702,#906,.F.);
#600=EDGE_CURVE('',#701,#680,#907,.T.);
#601=EDGE_CURVE('',#675,#706,#908,.F.);
#602=EDGE_CURVE('',#705,#676,#909,.T.);
#603=EDGE_CURVE('',#677,#704,#910,.F.);
#604=EDGE_CURVE('',#703,#678,#911,.T.);
#605=EDGE_CURVE('',#674,#700,#912,.F.);
#606=EDGE_CURVE('',#699,#673,#913,.T.);
#607=EDGE_CURVE('',#742,#772,#914,.T.);
#608=EDGE_CURVE('',#741,#770,#915,.T.);
#609=EDGE_CURVE('',#743,#771,#916,.T.);
#610=EDGE_CURVE('',#744,#773,#917,.T.);
#611=EDGE_CURVE('',#735,#682,#918,.T.);
#612=EDGE_CURVE('',#681,#736,#919,.F.);
#613=EDGE_CURVE('',#739,#774,#920,.T.);
#614=EDGE_CURVE('',#775,#774,#51,.T.);
#615=EDGE_CURVE('',#775,#686,#921,.T.);
#616=EDGE_CURVE('',#685,#740,#922,.F.);
#617=EDGE_CURVE('',#737,#688,#923,.T.);
#618=EDGE_CURVE('',#687,#738,#924,.F.);
#619=EDGE_CURVE('',#727,#776,#925,.T.);
#620=EDGE_CURVE('',#776,#724,#926,.T.);
#621=EDGE_CURVE('',#777,#723,#927,.T.);
#622=EDGE_CURVE('',#777,#726,#928,.T.);
#623=EDGE_CURVE('',#760,#778,#929,.T.);
#624=EDGE_CURVE('',#778,#765,#930,.T.);
#625=EDGE_CURVE('',#774,#775,#12,.T.);
#626=EDGE_CURVE('',#750,#779,#931,.T.);
#627=EDGE_CURVE('',#756,#779,#932,.T.);
#628=EDGE_CURVE('',#764,#779,#933,.T.);
#629=EDGE_CURVE('',#778,#780,#934,.T.);
#630=EDGE_CURVE('',#759,#780,#935,.T.);
#631=EDGE_CURVE('',#763,#780,#936,.T.);
#632=EDGE_CURVE('',#747,#781,#937,.T.);
#633=EDGE_CURVE('',#754,#781,#938,.T.);
#634=EDGE_CURVE('',#762,#781,#939,.T.);
#635=EDGE_CURVE('',#776,#719,#940,.T.);
#636=EDGE_CURVE('',#777,#659,#941,.T.);
#637=EDGE_CURVE('',#708,#692,#942,.T.);
#638=EDGE_CURVE('',#691,#707,#943,.F.);
#639=EDGE_CURVE('',#690,#710,#944,.F.);
#640=EDGE_CURVE('',#709,#689,#945,.T.);
#641=EDGE_CURVE('',#711,#696,#946,.T.);
#642=EDGE_CURVE('',#695,#712,#947,.F.);
#643=EDGE_CURVE('',#713,#694,#948,.T.);
#644=EDGE_CURVE('',#693,#714,#949,.F.);
#645=EDGE_CURVE('',#768,#766,#950,.T.);
#646=EDGE_CURVE('',#769,#767,#951,.T.);
#647=EDGE_CURVE('',#667,#661,#952,.T.);
#648=EDGE_CURVE('',#672,#662,#953,.T.);
#649=VERTEX_POINT('',#1882);
#650=VERTEX_POINT('',#1883);
#651=VERTEX_POINT('',#1885);
#652=VERTEX_POINT('',#1887);
#653=VERTEX_POINT('',#1891);
#654=VERTEX_POINT('',#1892);
#655=VERTEX_POINT('',#1894);
#656=VERTEX_POINT('',#1896);
#657=VERTEX_POINT('',#1898);
#658=VERTEX_POINT('',#1900);
#659=VERTEX_POINT('',#1902);
#660=VERTEX_POINT('',#1904);
#661=VERTEX_POINT('',#1908);
#662=VERTEX_POINT('',#1910);
#663=VERTEX_POINT('',#1912);
#664=VERTEX_POINT('',#1914);
#665=VERTEX_POINT('',#1916);
#666=VERTEX_POINT('',#1918);
#667=VERTEX_POINT('',#1922);
#668=VERTEX_POINT('',#1924);
#669=VERTEX_POINT('',#1926);
#670=VERTEX_POINT('',#1928);
#671=VERTEX_POINT('',#1930);
#672=VERTEX_POINT('',#1932);
#673=VERTEX_POINT('',#1936);
#674=VERTEX_POINT('',#1937);
#675=VERTEX_POINT('',#1939);
#676=VERTEX_POINT('',#1941);
#677=VERTEX_POINT('',#1943);
#678=VERTEX_POINT('',#1945);
#679=VERTEX_POINT('',#1947);
#680=VERTEX_POINT('',#1949);
#681=VERTEX_POINT('',#1952);
#682=VERTEX_POINT('',#1953);
#683=VERTEX_POINT('',#1955);
#684=VERTEX_POINT('',#1957);
#685=VERTEX_POINT('',#1959);
#686=VERTEX_POINT('',#1961);
#687=VERTEX_POINT('',#1963);
#688=VERTEX_POINT('',#1965);
#689=VERTEX_POINT('',#1968);
#690=VERTEX_POINT('',#1969);
#691=VERTEX_POINT('',#1971);
#692=VERTEX_POINT('',#1973);
#693=VERTEX_POINT('',#1975);
#694=VERTEX_POINT('',#1977);
#695=VERTEX_POINT('',#1979);
#696=VERTEX_POINT('',#1981);
#697=VERTEX_POINT('',#1985);
#698=VERTEX_POINT('',#1987);
#699=VERTEX_POINT('',#1990);
#700=VERTEX_POINT('',#1991);
#701=VERTEX_POINT('',#1993);
#702=VERTEX_POINT('',#1995);
#703=VERTEX_POINT('',#1997);
#704=VERTEX_POINT('',#1999);
#705=VERTEX_POINT('',#2001);
#706=VERTEX_POINT('',#2003);
#707=VERTEX_POINT('',#2006);
#708=VERTEX_POINT('',#2007);
#709=VERTEX_POINT('',#2009);
#710=VERTEX_POINT('',#2011);
#711=VERTEX_POINT('',#2013);
#712=VERTEX_POINT('',#2015);
#713=VERTEX_POINT('',#2017);
#714=VERTEX_POINT('',#2019);
#715=VERTEX_POINT('',#2023);
#716=VERTEX_POINT('',#2024);
#717=VERTEX_POINT('',#2026);
#718=VERTEX_POINT('',#2028);
#719=VERTEX_POINT('',#2030);
#720=VERTEX_POINT('',#2032);
#721=VERTEX_POINT('',#2034);
#722=VERTEX_POINT('',#2036);
#723=VERTEX_POINT('',#2040);
#724=VERTEX_POINT('',#2041);
#725=VERTEX_POINT('',#2047);
#726=VERTEX_POINT('',#2048);
#727=VERTEX_POINT('',#2053);
#728=VERTEX_POINT('',#2055);
#729=VERTEX_POINT('',#2059);
#730=VERTEX_POINT('',#2060);
#731=VERTEX_POINT('',#2062);
#732=VERTEX_POINT('',#2064);
#733=VERTEX_POINT('',#2067);
#734=VERTEX_POINT('',#2068);
#735=VERTEX_POINT('',#2070);
#736=VERTEX_POINT('',#2072);
#737=VERTEX_POINT('',#2074);
#738=VERTEX_POINT('',#2076);
#739=VERTEX_POINT('',#2078);
#740=VERTEX_POINT('',#2080);
#741=VERTEX_POINT('',#2084);
#742=VERTEX_POINT('',#2085);
#743=VERTEX_POINT('',#2087);
#744=VERTEX_POINT('',#2089);
#745=VERTEX_POINT('',#2092);
#746=VERTEX_POINT('',#2093);
#747=VERTEX_POINT('',#2095);
#748=VERTEX_POINT('',#2097);
#749=VERTEX_POINT('',#2100);
#750=VERTEX_POINT('',#2102);
#751=VERTEX_POINT('',#2104);
#752=VERTEX_POINT('',#2111);
#753=VERTEX_POINT('',#2112);
#754=VERTEX_POINT('',#2114);
#755=VERTEX_POINT('',#2117);
#756=VERTEX_POINT('',#2120);
#757=VERTEX_POINT('',#2122);
#758=VERTEX_POINT('',#2124);
#759=VERTEX_POINT('',#2126);
#760=VERTEX_POINT('',#2128);
#761=VERTEX_POINT('',#2132);
#762=VERTEX_POINT('',#2134);
#763=VERTEX_POINT('',#2139);
#764=VERTEX_POINT('',#2141);
#765=VERTEX_POINT('',#2144);
#766=VERTEX_POINT('',#2150);
#767=VERTEX_POINT('',#2151);
#768=VERTEX_POINT('',#2159);
#769=VERTEX_POINT('',#2161);
#770=VERTEX_POINT('',#2167);
#771=VERTEX_POINT('',#2168);
#772=VERTEX_POINT('',#2170);
#773=VERTEX_POINT('',#2172);
#774=VERTEX_POINT('',#2203);
#775=VERTEX_POINT('',#2205);
#776=VERTEX_POINT('',#2213);
#777=VERTEX_POINT('',#2216);
#778=VERTEX_POINT('',#2220);
#779=VERTEX_POINT('',#2232);
#780=VERTEX_POINT('',#2238);
#781=VERTEX_POINT('',#2244);
#782=LINE('',#1881,#954);
#783=LINE('',#1884,#955);
#784=LINE('',#1886,#956);
#785=LINE('',#1888,#957);
#786=LINE('',#1890,#958);
#787=LINE('',#1893,#959);
#788=LINE('',#1895,#960);
#789=LINE('',#1897,#961);
#790=LINE('',#1899,#962);
#791=LINE('',#1901,#963);
#792=LINE('',#1903,#964);
#793=LINE('',#1905,#965);
#794=LINE('',#1907,#966);
#795=LINE('',#1909,#967);
#796=LINE('',#1911,#968);
#797=LINE('',#1913,#969);
#798=LINE('',#1915,#970);
#799=LINE('',#1917,#971);
#800=LINE('',#1919,#972);
#801=LINE('',#1921,#973);
#802=LINE('',#1923,#974);
#803=LINE('',#1925,#975);
#804=LINE('',#1927,#976);
#805=LINE('',#1929,#977);
#806=LINE('',#1931,#978);
#807=LINE('',#1933,#979);
#808=LINE('',#1935,#980);
#809=LINE('',#1940,#981);
#810=LINE('',#1944,#982);
#811=LINE('',#1948,#983);
#812=LINE('',#1951,#984);
#813=LINE('',#1956,#985);
#814=LINE('',#1960,#986);
#815=LINE('',#1964,#987);
#816=LINE('',#1967,#988);
#817=LINE('',#1972,#989);
#818=LINE('',#1976,#990);
#819=LINE('',#1980,#991);
#820=LINE('',#1984,#992);
#821=LINE('',#1986,#993);
#822=LINE('',#1988,#994);
#823=LINE('',#1989,#995);
#824=LINE('',#1994,#996);
#825=LINE('',#1998,#997);
#826=LINE('',#2002,#998);
#827=LINE('',#2005,#999);
#828=LINE('',#2010,#1000);
#829=LINE('',#2014,#1001);
#830=LINE('',#2018,#1002);
#831=LINE('',#2022,#1003);
#832=LINE('',#2025,#1004);
#833=LINE('',#2027,#1005);
#834=LINE('',#2029,#1006);
#835=LINE('',#2031,#1007);
#836=LINE('',#2033,#1008);
#837=LINE('',#2035,#1009);
#838=LINE('',#2037,#1010);
#839=LINE('',#2039,#1011);
#840=LINE('',#2042,#1012);
#841=LINE('',#2043,#1013);
#842=LINE('',#2044,#1014);
#843=LINE('',#2046,#1015);
#844=LINE('',#2049,#1016);
#845=LINE('',#2050,#1017);
#846=LINE('',#2052,#1018);
#847=LINE('',#2054,#1019);
#848=LINE('',#2056,#1020);
#849=LINE('',#2058,#1021);
#850=LINE('',#2061,#1022);
#851=LINE('',#2063,#1023);
#852=LINE('',#2065,#1024);
#853=LINE('',#2066,#1025);
#854=LINE('',#2071,#1026);
#855=LINE('',#2075,#1027);
#856=LINE('',#2079,#1028);
#857=LINE('',#2083,#1029);
#858=LINE('',#2086,#1030);
#859=LINE('',#2088,#1031);
#860=LINE('',#2090,#1032);
#861=LINE('',#2091,#1033);
#862=LINE('',#2094,#1034);
#863=LINE('',#2096,#1035);
#864=LINE('',#2098,#1036);
#865=LINE('',#2099,#1037);
#866=LINE('',#2101,#1038);
#867=LINE('',#2103,#1039);
#868=LINE('',#2105,#1040);
#869=LINE('',#2106,#1041);
#870=LINE('',#2107,#1042);
#871=LINE('',#2108,#1043);
#872=LINE('',#2110,#1044);
#873=LINE('',#2113,#1045);
#874=LINE('',#2115,#1046);
#875=LINE('',#2116,#1047);
#876=LINE('',#2118,#1048);
#877=LINE('',#2119,#1049);
#878=LINE('',#2121,#1050);
#879=LINE('',#2123,#1051);
#880=LINE('',#2125,#1052);
#881=LINE('',#2127,#1053);
#882=LINE('',#2129,#1054);
#883=LINE('',#2133,#1055);
#884=LINE('',#2135,#1056);
#885=LINE('',#2136,#1057);
#886=LINE('',#2138,#1058);
#887=LINE('',#2140,#1059);
#888=LINE('',#2142,#1060);
#889=LINE('',#2143,#1061);
#890=LINE('',#2145,#1062);
#891=LINE('',#2147,#1063);
#892=LINE('',#2149,#1064);
#893=LINE('',#2152,#1065);
#894=LINE('',#2153,#1066);
#895=LINE('',#2154,#1067);
#896=LINE('',#2156,#1068);
#897=LINE('',#2158,#1069);
#898=LINE('',#2160,#1070);
#899=LINE('',#2162,#1071);
#900=LINE('',#2164,#1072);
#901=LINE('',#2165,#1073);
#902=LINE('',#2166,#1074);
#903=LINE('',#2169,#1075);
#904=LINE('',#2171,#1076);
#905=LINE('',#2173,#1077);
#906=LINE('',#2175,#1078);
#907=LINE('',#2176,#1079);
#908=LINE('',#2178,#1080);
#909=LINE('',#2179,#1081);
#910=LINE('',#2181,#1082);
#911=LINE('',#2182,#1083);
#912=LINE('',#2184,#1084);
#913=LINE('',#2185,#1085);
#914=LINE('',#2191,#1086);
#915=LINE('',#2192,#1087);
#916=LINE('',#2194,#1088);
#917=LINE('',#2196,#1089);
#918=LINE('',#2199,#1090);
#919=LINE('',#2200,#1091);
#920=LINE('',#2202,#1092);
#921=LINE('',#2206,#1093);
#922=LINE('',#2207,#1094);
#923=LINE('',#2209,#1095);
#924=LINE('',#2210,#1096);
#925=LINE('',#2212,#1097);
#926=LINE('',#2214,#1098);
#927=LINE('',#2215,#1099);
#928=LINE('',#2217,#1100);
#929=LINE('',#2219,#1101);
#930=LINE('',#2221,#1102);
#931=LINE('',#2231,#1103);
#932=LINE('',#2233,#1104);
#933=LINE('',#2235,#1105);
#934=LINE('',#2237,#1106);
#935=LINE('',#2239,#1107);
#936=LINE('',#2241,#1108);
#937=LINE('',#2243,#1109);
#938=LINE('',#2245,#1110);
#939=LINE('',#2247,#1111);
#940=LINE('',#2252,#1112);
#941=LINE('',#2255,#1113);
#942=LINE('',#2258,#1114);
#943=LINE('',#2259,#1115);
#944=LINE('',#2261,#1116);
#945=LINE('',#2262,#1117);
#946=LINE('',#2264,#1118);
#947=LINE('',#2265,#1119);
#948=LINE('',#2267,#1120);
#949=LINE('',#2268,#1121);
#950=LINE('',#2278,#1122);
#951=LINE('',#2280,#1123);
#952=LINE('',#2283,#1124);
#953=LINE('',#2285,#1125);
#954=VECTOR('',#1519,1.);
#955=VECTOR('',#1520,1.);
#956=VECTOR('',#1521,1.);
#957=VECTOR('',#1522,1.);
#958=VECTOR('',#1525,1.);
#959=VECTOR('',#1526,1.);
#960=VECTOR('',#1527,1.);
#961=VECTOR('',#1528,1.);
#962=VECTOR('',#1529,1.);
#963=VECTOR('',#1530,1.);
#964=VECTOR('',#1531,1.);
#965=VECTOR('',#1532,1.);
#966=VECTOR('',#1535,1.);
#967=VECTOR('',#1536,1.);
#968=VECTOR('',#1537,1.);
#969=VECTOR('',#1538,1.);
#970=VECTOR('',#1539,1.);
#971=VECTOR('',#1540,1.);
#972=VECTOR('',#1541,1.);
#973=VECTOR('',#1544,1.);
#974=VECTOR('',#1545,1.);
#975=VECTOR('',#1546,1.);
#976=VECTOR('',#1547,1.);
#977=VECTOR('',#1548,1.);
#978=VECTOR('',#1549,1.);
#979=VECTOR('',#1550,1.);
#980=VECTOR('',#1553,1.);
#981=VECTOR('',#1556,1.);
#982=VECTOR('',#1559,1.);
#983=VECTOR('',#1562,1.);
#984=VECTOR('',#1565,1.);
#985=VECTOR('',#1568,1.);
#986=VECTOR('',#1571,1.);
#987=VECTOR('',#1574,1.);
#988=VECTOR('',#1577,1.);
#989=VECTOR('',#1580,1.);
#990=VECTOR('',#1583,1.);
#991=VECTOR('',#1586,1.);
#992=VECTOR('',#1591,1.);
#993=VECTOR('',#1592,1.);
#994=VECTOR('',#1593,1.);
#995=VECTOR('',#1594,1.);
#996=VECTOR('',#1597,1.);
#997=VECTOR('',#1600,1.);
#998=VECTOR('',#1603,1.);
#999=VECTOR('',#1606,1.);
#1000=VECTOR('',#1609,1.);
#1001=VECTOR('',#1612,1.);
#1002=VECTOR('',#1615,1.);
#1003=VECTOR('',#1620,1.);
#1004=VECTOR('',#1621,1.);
#1005=VECTOR('',#1622,1.);
#1006=VECTOR('',#1623,1.);
#1007=VECTOR('',#1624,1.);
#1008=VECTOR('',#1625,1.);
#1009=VECTOR('',#1626,1.);
#1010=VECTOR('',#1627,1.);
#1011=VECTOR('',#1630,1.);
#1012=VECTOR('',#1631,1.);
#1013=VECTOR('',#1632,1.);
#1014=VECTOR('',#1633,1.);
#1015=VECTOR('',#1636,1.);
#1016=VECTOR('',#1637,1.);
#1017=VECTOR('',#1638,1.);
#1018=VECTOR('',#1641,1.);
#1019=VECTOR('',#1642,1.);
#1020=VECTOR('',#1643,1.);
#1021=VECTOR('',#1646,1.);
#1022=VECTOR('',#1647,1.);
#1023=VECTOR('',#1648,1.);
#1024=VECTOR('',#1649,1.);
#1025=VECTOR('',#1650,1.);
#1026=VECTOR('',#1653,1.);
#1027=VECTOR('',#1656,1.);
#1028=VECTOR('',#1659,1.);
#1029=VECTOR('',#1664,1.);
#1030=VECTOR('',#1665,1.);
#1031=VECTOR('',#1666,1.);
#1032=VECTOR('',#1667,1.);
#1033=VECTOR('',#1668,1.);
#1034=VECTOR('',#1669,1.);
#1035=VECTOR('',#1670,1.);
#1036=VECTOR('',#1671,1.);
#1037=VECTOR('',#1672,1.);
#1038=VECTOR('',#1673,1.);
#1039=VECTOR('',#1674,1.);
#1040=VECTOR('',#1675,1.);
#1041=VECTOR('',#1676,1.);
#1042=VECTOR('',#1677,1.);
#1043=VECTOR('',#1678,1.);
#1044=VECTOR('',#1681,1.);
#1045=VECTOR('',#1682,1.);
#1046=VECTOR('',#1683,1.);
#1047=VECTOR('',#1684,1.);
#1048=VECTOR('',#1685,1.);
#1049=VECTOR('',#1686,1.);
#1050=VECTOR('',#1687,1.);
#1051=VECTOR('',#1688,1.);
#1052=VECTOR('',#1689,1.);
#1053=VECTOR('',#1690,1.);
#1054=VECTOR('',#1691,1.);
#1055=VECTOR('',#1696,1.);
#1056=VECTOR('',#1697,1.);
#1057=VECTOR('',#1698,1.);
#1058=VECTOR('',#1701,1.);
#1059=VECTOR('',#1702,1.);
#1060=VECTOR('',#1703,1.);
#1061=VECTOR('',#1704,1.);
#1062=VECTOR('',#1705,1.);
#1063=VECTOR('',#1708,1.);
#1064=VECTOR('',#1711,1.);
#1065=VECTOR('',#1712,1.);
#1066=VECTOR('',#1713,1.);
#1067=VECTOR('',#1714,1.);
#1068=VECTOR('',#1717,1.);
#1069=VECTOR('',#1720,1.);
#1070=VECTOR('',#1721,1.);
#1071=VECTOR('',#1722,1.);
#1072=VECTOR('',#1725,1.);
#1073=VECTOR('',#1726,1.);
#1074=VECTOR('',#1727,1.);
#1075=VECTOR('',#1728,1.);
#1076=VECTOR('',#1729,1.);
#1077=VECTOR('',#1730,1.);
#1078=VECTOR('',#1733,1.);
#1079=VECTOR('',#1734,1.);
#1080=VECTOR('',#1737,1.);
#1081=VECTOR('',#1738,1.);
#1082=VECTOR('',#1741,1.);
#1083=VECTOR('',#1742,1.);
#1084=VECTOR('',#1745,1.);
#1085=VECTOR('',#1746,1.);
#1086=VECTOR('',#1757,1.);
#1087=VECTOR('',#1758,1.);
#1088=VECTOR('',#1761,1.);
#1089=VECTOR('',#1764,1.);
#1090=VECTOR('',#1769,1.);
#1091=VECTOR('',#1770,1.);
#1092=VECTOR('',#1773,1.);
#1093=VECTOR('',#1776,1.);
#1094=VECTOR('',#1777,1.);
#1095=VECTOR('',#1780,1.);
#1096=VECTOR('',#1781,1.);
#1097=VECTOR('',#1784,1.);
#1098=VECTOR('',#1785,1.);
#1099=VECTOR('',#1786,1.);
#1100=VECTOR('',#1787,1.);
#1101=VECTOR('',#1790,1.);
#1102=VECTOR('',#1791,1.);
#1103=VECTOR('',#1796,1.);
#1104=VECTOR('',#1797,1.);
#1105=VECTOR('',#1800,1.);
#1106=VECTOR('',#1803,1.);
#1107=VECTOR('',#1804,1.);
#1108=VECTOR('',#1807,1.);
#1109=VECTOR('',#1810,1.);
#1110=VECTOR('',#1811,1.);
#1111=VECTOR('',#1814,1.);
#1112=VECTOR('',#1823,1.);
#1113=VECTOR('',#1828,1.);
#1114=VECTOR('',#1833,1.);
#1115=VECTOR('',#1834,1.);
#1116=VECTOR('',#1837,1.);
#1117=VECTOR('',#1838,1.);
#1118=VECTOR('',#1841,1.);
#1119=VECTOR('',#1842,1.);
#1120=VECTOR('',#1845,1.);
#1121=VECTOR('',#1846,1.);
#1122=VECTOR('',#1865,1.);
#1123=VECTOR('',#1868,1.);
#1124=VECTOR('',#1873,1.);
#1125=VECTOR('',#1876,1.);
#1126=EDGE_LOOP('',(#52,#53,#54,#55));
#1127=EDGE_LOOP('',(#56,#57,#58,#59,#60,#61,#62,#63));
#1128=EDGE_LOOP('',(#64,#65,#66,#67,#68,#69,#70,#71));
#1129=EDGE_LOOP('',(#72,#73,#74,#75,#76,#77,#78,#79));
#1130=EDGE_LOOP('',(#80,#81,#82,#83,#84,#85,#86,#87));
#1131=EDGE_LOOP('',(#88,#89,#90,#91,#92,#93,#94,#95));
#1132=EDGE_LOOP('',(#96,#97,#98,#99,#100,#101,#102,#103));
#1133=EDGE_LOOP('',(#104,#105,#106,#107));
#1134=EDGE_LOOP('',(#108,#109,#110,#111,#112,#113,#114,#115));
#1135=EDGE_LOOP('',(#116,#117,#118,#119,#120,#121,#122,#123));
#1136=EDGE_LOOP('',(#124,#125,#126,#127,#128,#129,#130,#131));
#1137=EDGE_LOOP('',(#132,#133,#134,#135,#136,#137,#138,#139));
#1138=EDGE_LOOP('',(#140,#141,#142,#143));
#1139=EDGE_LOOP('',(#144,#145,#146,#147));
#1140=EDGE_LOOP('',(#148,#149,#150,#151));
#1141=EDGE_LOOP('',(#152,#153,#154,#155,#156,#157,#158,#159));
#1142=EDGE_LOOP('',(#160,#161,#162,#163));
#1143=EDGE_LOOP('',(#164,#165,#166,#167,#168,#169,#170,#171,#172,#173,#174,
#175,#176,#177,#178,#179));
#1144=EDGE_LOOP('',(#180,#181,#182,#183,#184,#185,#186,#187,#188,#189,#190,
#191,#192,#193));
#1145=EDGE_LOOP('',(#194));
#1146=EDGE_LOOP('',(#195,#196,#197,#198,#199,#200));
#1147=EDGE_LOOP('',(#201,#202,#203,#204,#205,#206,#207,#208));
#1148=EDGE_LOOP('',(#209,#210,#211,#212));
#1149=EDGE_LOOP('',(#213,#214,#215,#216,#217,#218,#219,#220));
#1150=EDGE_LOOP('',(#221,#222,#223,#224,#225,#226,#227,#228));
#1151=EDGE_LOOP('',(#229,#230,#231,#232,#233,#234,#235,#236));
#1152=EDGE_LOOP('',(#237,#238,#239,#240));
#1153=EDGE_LOOP('',(#241,#242,#243,#244));
#1154=EDGE_LOOP('',(#245,#246,#247,#248));
#1155=EDGE_LOOP('',(#249,#250,#251,#252));
#1156=EDGE_LOOP('',(#253,#254,#255,#256));
#1157=EDGE_LOOP('',(#257,#258,#259,#260));
#1158=EDGE_LOOP('',(#261,#262,#263,#264));
#1159=EDGE_LOOP('',(#265,#266,#267,#268));
#1160=EDGE_LOOP('',(#269,#270,#271,#272));
#1161=EDGE_LOOP('',(#273,#274,#275,#276));
#1162=EDGE_LOOP('',(#277,#278,#279,#280));
#1163=EDGE_LOOP('',(#281,#282,#283,#284));
#1164=EDGE_LOOP('',(#285,#286,#287,#288));
#1165=EDGE_LOOP('',(#289,#290,#291,#292));
#1166=EDGE_LOOP('',(#293,#294,#295,#296));
#1167=EDGE_LOOP('',(#297,#298,#299,#300,#301,#302));
#1168=EDGE_LOOP('',(#303,#304,#305,#306));
#1169=EDGE_LOOP('',(#307,#308,#309,#310,#311,#312,#313,#314));
#1170=EDGE_LOOP('',(#315,#316,#317,#318,#319,#320));
#1171=EDGE_LOOP('',(#321,#322));
#1172=EDGE_LOOP('',(#323));
#1173=EDGE_LOOP('',(#324,#325,#326,#327));
#1174=EDGE_LOOP('',(#328,#329,#330,#331));
#1175=EDGE_LOOP('',(#332,#333,#334,#335));
#1176=EDGE_LOOP('',(#336,#337,#338,#339));
#1177=EDGE_LOOP('',(#340,#341,#342,#343));
#1178=EDGE_LOOP('',(#344,#345,#346,#347));
#1179=EDGE_LOOP('',(#348,#349,#350,#351));
#1180=EDGE_LOOP('',(#352,#353,#354,#355));
#1181=EDGE_LOOP('',(#356,#357,#358,#359));
#1182=EDGE_LOOP('',(#360,#361,#362,#363));
#1183=EDGE_LOOP('',(#364,#365,#366,#367));
#1184=EDGE_LOOP('',(#368,#369,#370,#371));
#1185=EDGE_LOOP('',(#372,#373,#374,#375));
#1186=EDGE_LOOP('',(#376,#377,#378,#379));
#1187=EDGE_LOOP('',(#380,#381,#382,#383));
#1188=EDGE_LOOP('',(#384,#385,#386,#387));
#1189=EDGE_LOOP('',(#388,#389,#390,#391));
#1190=EDGE_LOOP('',(#392,#393,#394,#395));
#1191=EDGE_LOOP('',(#396,#397,#398,#399));
#1192=EDGE_LOOP('',(#400,#401,#402,#403));
#1193=EDGE_LOOP('',(#404,#405,#406,#407));
#1194=EDGE_LOOP('',(#408,#409,#410,#411));
#1195=EDGE_LOOP('',(#412,#413,#414,#415));
#1196=EDGE_LOOP('',(#416,#417,#418,#419,#420,#421));
#1197=EDGE_LOOP('',(#422,#423,#424,#425));
#1198=EDGE_LOOP('',(#426,#427,#428,#429));
#1199=EDGE_LOOP('',(#430,#431,#432,#433));
#1200=EDGE_LOOP('',(#434,#435,#436,#437));
#1201=EDGE_LOOP('',(#438,#439,#440,#441));
#1202=EDGE_LOOP('',(#442,#443,#444,#445));
#1203=EDGE_LOOP('',(#446,#447,#448,#449));
#1204=FACE_BOUND('',#1126,.T.);
#1205=FACE_BOUND('',#1127,.T.);
#1206=FACE_BOUND('',#1128,.T.);
#1207=FACE_BOUND('',#1129,.T.);
#1208=FACE_BOUND('',#1130,.T.);
#1209=FACE_BOUND('',#1131,.T.);
#1210=FACE_BOUND('',#1132,.T.);
#1211=FACE_BOUND('',#1133,.T.);
#1212=FACE_BOUND('',#1134,.T.);
#1213=FACE_BOUND('',#1135,.T.);
#1214=FACE_BOUND('',#1136,.T.);
#1215=FACE_BOUND('',#1137,.T.);
#1216=FACE_BOUND('',#1138,.T.);
#1217=FACE_BOUND('',#1139,.T.);
#1218=FACE_BOUND('',#1140,.T.);
#1219=FACE_BOUND('',#1141,.T.);
#1220=FACE_BOUND('',#1142,.T.);
#1221=FACE_BOUND('',#1143,.T.);
#1222=FACE_BOUND('',#1144,.T.);
#1223=FACE_BOUND('',#1145,.T.);
#1224=FACE_BOUND('',#1146,.T.);
#1225=FACE_BOUND('',#1147,.T.);
#1226=FACE_BOUND('',#1148,.T.);
#1227=FACE_BOUND('',#1149,.T.);
#1228=FACE_BOUND('',#1150,.T.);
#1229=FACE_BOUND('',#1151,.T.);
#1230=FACE_BOUND('',#1152,.T.);
#1231=FACE_BOUND('',#1153,.T.);
#1232=FACE_BOUND('',#1154,.T.);
#1233=FACE_BOUND('',#1155,.T.);
#1234=FACE_BOUND('',#1156,.T.);
#1235=FACE_BOUND('',#1157,.T.);
#1236=FACE_BOUND('',#1158,.T.);
#1237=FACE_BOUND('',#1159,.T.);
#1238=FACE_BOUND('',#1160,.T.);
#1239=FACE_BOUND('',#1161,.T.);
#1240=FACE_BOUND('',#1162,.T.);
#1241=FACE_BOUND('',#1163,.T.);
#1242=FACE_BOUND('',#1164,.T.);
#1243=FACE_BOUND('',#1165,.T.);
#1244=FACE_BOUND('',#1166,.T.);
#1245=FACE_BOUND('',#1167,.T.);
#1246=FACE_BOUND('',#1168,.T.);
#1247=FACE_BOUND('',#1169,.T.);
#1248=FACE_BOUND('',#1170,.T.);
#1249=FACE_BOUND('',#1171,.T.);
#1250=FACE_BOUND('',#1172,.T.);
#1251=FACE_BOUND('',#1173,.T.);
#1252=FACE_BOUND('',#1174,.T.);
#1253=FACE_BOUND('',#1175,.T.);
#1254=FACE_BOUND('',#1176,.T.);
#1255=FACE_BOUND('',#1177,.T.);
#1256=FACE_BOUND('',#1178,.T.);
#1257=FACE_BOUND('',#1179,.T.);
#1258=FACE_BOUND('',#1180,.T.);
#1259=FACE_BOUND('',#1181,.T.);
#1260=FACE_BOUND('',#1182,.T.);
#1261=FACE_BOUND('',#1183,.T.);
#1262=FACE_BOUND('',#1184,.T.);
#1263=FACE_BOUND('',#1185,.T.);
#1264=FACE_BOUND('',#1186,.T.);
#1265=FACE_BOUND('',#1187,.T.);
#1266=FACE_BOUND('',#1188,.T.);
#1267=FACE_BOUND('',#1189,.T.);
#1268=FACE_BOUND('',#1190,.T.);
#1269=FACE_BOUND('',#1191,.T.);
#1270=FACE_BOUND('',#1192,.T.);
#1271=FACE_BOUND('',#1193,.T.);
#1272=FACE_BOUND('',#1194,.T.);
#1273=FACE_BOUND('',#1195,.T.);
#1274=FACE_BOUND('',#1196,.T.);
#1275=FACE_BOUND('',#1197,.T.);
#1276=FACE_BOUND('',#1198,.T.);
#1277=FACE_BOUND('',#1199,.T.);
#1278=FACE_BOUND('',#1200,.T.);
#1279=FACE_BOUND('',#1201,.T.);
#1280=FACE_BOUND('',#1202,.T.);
#1281=FACE_BOUND('',#1203,.T.);
#1282=PLANE('',#1420);
#1283=PLANE('',#1421);
#1284=PLANE('',#1422);
#1285=PLANE('',#1423);
#1286=PLANE('',#1424);
#1287=PLANE('',#1437);
#1288=PLANE('',#1446);
#1289=PLANE('',#1447);
#1290=PLANE('',#1448);
#1291=PLANE('',#1449);
#1292=PLANE('',#1450);
#1293=PLANE('',#1455);
#1294=PLANE('',#1456);
#1295=PLANE('',#1457);
#1296=PLANE('',#1459);
#1297=PLANE('',#1460);
#1298=PLANE('',#1461);
#1299=PLANE('',#1462);
#1300=PLANE('',#1463);
#1301=PLANE('',#1464);
#1302=PLANE('',#1465);
#1303=PLANE('',#1466);
#1304=PLANE('',#1467);
#1305=PLANE('',#1468);
#1306=PLANE('',#1473);
#1307=PLANE('',#1474);
#1308=PLANE('',#1475);
#1309=PLANE('',#1476);
#1310=PLANE('',#1477);
#1311=PLANE('',#1478);
#1312=PLANE('',#1480);
#1313=PLANE('',#1481);
#1314=PLANE('',#1482);
#1315=PLANE('',#1484);
#1316=PLANE('',#1485);
#1317=PLANE('',#1486);
#1318=PLANE('',#1487);
#1319=PLANE('',#1488);
#1320=PLANE('',#1489);
#1321=PLANE('',#1490);
#1322=PLANE('',#1491);
#1323=PLANE('',#1492);
#1324=PLANE('',#1493);
#1325=PLANE('',#1494);
#1326=PLANE('',#1495);
#1327=PLANE('',#1496);
#1328=PLANE('',#1497);
#1329=PLANE('',#1498);
#1330=PLANE('',#1499);
#1331=PLANE('',#1500);
#1332=PLANE('',#1509);
#1333=PLANE('',#1510);
#1334=PLANE('',#1511);
#1335=PLANE('',#1512);
#1336=PLANE('',#1513);
#1337=PLANE('',#1514);
#1338=ADVANCED_FACE('',(#1204),#1282,.T.);
#1339=ADVANCED_FACE('',(#1205),#1283,.T.);
#1340=ADVANCED_FACE('',(#1206),#1284,.T.);
#1341=ADVANCED_FACE('',(#1207),#1285,.F.);
#1342=ADVANCED_FACE('',(#1208,#1209,#1210),#1286,.F.);
#1343=ADVANCED_FACE('',(#1211,#1212,#1213),#1287,.F.);
#1344=ADVANCED_FACE('',(#1214),#1288,.T.);
#1345=ADVANCED_FACE('',(#1215),#1289,.T.);
#1346=ADVANCED_FACE('',(#1216),#1290,.T.);
#1347=ADVANCED_FACE('',(#1217),#1291,.F.);
#1348=ADVANCED_FACE('',(#1218,#1219),#1292,.T.);
#1349=ADVANCED_FACE('',(#1220,#1221),#1293,.F.);
#1350=ADVANCED_FACE('',(#1222),#1294,.F.);
#1351=ADVANCED_FACE('',(#1223,#1224),#1295,.F.);
#1352=ADVANCED_FACE('',(#1225),#1296,.F.);
#1353=ADVANCED_FACE('',(#1226),#1297,.T.);
#1354=ADVANCED_FACE('',(#1227),#1298,.F.);
#1355=ADVANCED_FACE('',(#1228),#1299,.F.);
#1356=ADVANCED_FACE('',(#1229),#1300,.T.);
#1357=ADVANCED_FACE('',(#1230,#1231),#1301,.T.);
#1358=ADVANCED_FACE('',(#1232),#1302,.T.);
#1359=ADVANCED_FACE('',(#1233),#1303,.T.);
#1360=ADVANCED_FACE('',(#1234),#1304,.F.);
#1361=ADVANCED_FACE('',(#1235),#1305,.F.);
#1362=ADVANCED_FACE('',(#1236),#13,.F.);
#1363=ADVANCED_FACE('',(#1237),#14,.F.);
#1364=ADVANCED_FACE('',(#1238),#15,.F.);
#1365=ADVANCED_FACE('',(#1239),#16,.F.);
#1366=ADVANCED_FACE('',(#1240),#1306,.T.);
#1367=ADVANCED_FACE('',(#1241),#1307,.F.);
#1368=ADVANCED_FACE('',(#1242),#1308,.F.);
#1369=ADVANCED_FACE('',(#1243),#1309,.T.);
#1370=ADVANCED_FACE('',(#1244),#1310,.T.);
#1371=ADVANCED_FACE('',(#1245),#1311,.T.);
#1372=ADVANCED_FACE('',(#1246),#1312,.T.);
#1373=ADVANCED_FACE('',(#1247),#1313,.T.);
#1374=ADVANCED_FACE('',(#1248),#1314,.F.);
#1375=ADVANCED_FACE('',(#1249,#1250),#17,.F.);
#1376=ADVANCED_FACE('',(#1251),#1315,.F.);
#1377=ADVANCED_FACE('',(#1252),#1316,.T.);
#1378=ADVANCED_FACE('',(#1253),#1317,.T.);
#1379=ADVANCED_FACE('',(#1254),#1318,.F.);
#1380=ADVANCED_FACE('',(#1255),#1319,.T.);
#1381=ADVANCED_FACE('',(#1256),#1320,.F.);
#1382=ADVANCED_FACE('',(#1257),#1321,.T.);
#1383=ADVANCED_FACE('',(#1258),#1322,.T.);
#1384=ADVANCED_FACE('',(#1259),#1323,.T.);
#1385=ADVANCED_FACE('',(#1260),#1324,.T.);
#1386=ADVANCED_FACE('',(#1261),#1325,.T.);
#1387=ADVANCED_FACE('',(#1262),#1326,.T.);
#1388=ADVANCED_FACE('',(#1263),#1327,.F.);
#1389=ADVANCED_FACE('',(#1264),#1328,.T.);
#1390=ADVANCED_FACE('',(#1265),#1329,.F.);
#1391=ADVANCED_FACE('',(#1266),#1330,.F.);
#1392=ADVANCED_FACE('',(#1267),#1331,.T.);
#1393=ADVANCED_FACE('',(#1268),#18,.F.);
#1394=ADVANCED_FACE('',(#1269),#19,.F.);
#1395=ADVANCED_FACE('',(#1270),#20,.F.);
#1396=ADVANCED_FACE('',(#1271),#21,.F.);
#1397=ADVANCED_FACE('',(#1272),#22,.T.);
#1398=ADVANCED_FACE('',(#1273),#23,.T.);
#1399=ADVANCED_FACE('',(#1274),#24,.T.);
#1400=ADVANCED_FACE('',(#1275),#25,.T.);
#1401=ADVANCED_FACE('',(#1276),#1332,.F.);
#1402=ADVANCED_FACE('',(#1277),#1333,.T.);
#1403=ADVANCED_FACE('',(#1278),#1334,.T.);
#1404=ADVANCED_FACE('',(#1279),#1335,.T.);
#1405=ADVANCED_FACE('',(#1280),#1336,.F.);
#1406=ADVANCED_FACE('',(#1281),#1337,.T.);
#1407=CLOSED_SHELL('',(#1338,#1339,#1340,#1341,#1342,#1343,#1344,#1345,
#1346,#1347,#1348,#1349,#1350,#1351,#1352,#1353,#1354,#1355,#1356,#1357,
#1358,#1359,#1360,#1361,#1362,#1363,#1364,#1365,#1366,#1367,#1368,#1369,
#1370,#1371,#1372,#1373,#1374,#1375,#1376,#1377,#1378,#1379,#1380,#1381,
#1382,#1383,#1384,#1385,#1386,#1387,#1388,#1389,#1390,#1391,#1392,#1393,
#1394,#1395,#1396,#1397,#1398,#1399,#1400,#1401,#1402,#1403,#1404,#1405,
#1406));
#1408=STYLED_ITEM('',(#1409),#1416);
#1409=PRESENTATION_STYLE_ASSIGNMENT((#1410));
#1410=SURFACE_STYLE_USAGE(.BOTH.,#1411);
#1411=SURFACE_SIDE_STYLE('',(#1412));
#1412=SURFACE_STYLE_FILL_AREA(#1413);
#1413=FILL_AREA_STYLE('',(#1414));
#1414=FILL_AREA_STYLE_COLOUR('',#1415);
#1415=COLOUR_RGB('',0.615686274509804,0.811764705882353,0.929411764705882);
#1416=MANIFOLD_SOLID_BREP('Part 1',#1407);
#1417=SHAPE_DEFINITION_REPRESENTATION(#2293,#1418);
#1418=SHAPE_REPRESENTATION('Part 1',(#1419),#2288);
#1419=AXIS2_PLACEMENT_3D('',#1879,#1515,#1516);
#1420=AXIS2_PLACEMENT_3D('',#1880,#1517,#1518);
#1421=AXIS2_PLACEMENT_3D('',#1889,#1523,#1524);
#1422=AXIS2_PLACEMENT_3D('',#1906,#1533,#1534);
#1423=AXIS2_PLACEMENT_3D('',#1920,#1542,#1543);
#1424=AXIS2_PLACEMENT_3D('',#1934,#1551,#1552);
#1425=AXIS2_PLACEMENT_3D('',#1938,#1554,#1555);
#1426=AXIS2_PLACEMENT_3D('',#1942,#1557,#1558);
#1427=AXIS2_PLACEMENT_3D('',#1946,#1560,#1561);
#1428=AXIS2_PLACEMENT_3D('',#1950,#1563,#1564);
#1429=AXIS2_PLACEMENT_3D('',#1954,#1566,#1567);
#1430=AXIS2_PLACEMENT_3D('',#1958,#1569,#1570);
#1431=AXIS2_PLACEMENT_3D('',#1962,#1572,#1573);
#1432=AXIS2_PLACEMENT_3D('',#1966,#1575,#1576);
#1433=AXIS2_PLACEMENT_3D('',#1970,#1578,#1579);
#1434=AXIS2_PLACEMENT_3D('',#1974,#1581,#1582);
#1435=AXIS2_PLACEMENT_3D('',#1978,#1584,#1585);
#1436=AXIS2_PLACEMENT_3D('',#1982,#1587,#1588);
#1437=AXIS2_PLACEMENT_3D('',#1983,#1589,#1590);
#1438=AXIS2_PLACEMENT_3D('',#1992,#1595,#1596);
#1439=AXIS2_PLACEMENT_3D('',#1996,#1598,#1599);
#1440=AXIS2_PLACEMENT_3D('',#2000,#1601,#1602);
#1441=AXIS2_PLACEMENT_3D('',#2004,#1604,#1605);
#1442=AXIS2_PLACEMENT_3D('',#2008,#1607,#1608);
#1443=AXIS2_PLACEMENT_3D('',#2012,#1610,#1611);
#1444=AXIS2_PLACEMENT_3D('',#2016,#1613,#1614);
#1445=AXIS2_PLACEMENT_3D('',#2020,#1616,#1617);
#1446=AXIS2_PLACEMENT_3D('',#2021,#1618,#1619);
#1447=AXIS2_PLACEMENT_3D('',#2038,#1628,#1629);
#1448=AXIS2_PLACEMENT_3D('',#2045,#1634,#1635);
#1449=AXIS2_PLACEMENT_3D('',#2051,#1639,#1640);
#1450=AXIS2_PLACEMENT_3D('',#2057,#1644,#1645);
#1451=AXIS2_PLACEMENT_3D('',#2069,#1651,#1652);
#1452=AXIS2_PLACEMENT_3D('',#2073,#1654,#1655);
#1453=AXIS2_PLACEMENT_3D('',#2077,#1657,#1658);
#1454=AXIS2_PLACEMENT_3D('',#2081,#1660,#1661);
#1455=AXIS2_PLACEMENT_3D('',#2082,#1662,#1663);
#1456=AXIS2_PLACEMENT_3D('',#2109,#1679,#1680);
#1457=AXIS2_PLACEMENT_3D('',#2130,#1692,#1693);
#1458=AXIS2_PLACEMENT_3D('',#2131,#1694,#1695);
#1459=AXIS2_PLACEMENT_3D('',#2137,#1699,#1700);
#1460=AXIS2_PLACEMENT_3D('',#2146,#1706,#1707);
#1461=AXIS2_PLACEMENT_3D('',#2148,#1709,#1710);
#1462=AXIS2_PLACEMENT_3D('',#2155,#1715,#1716);
#1463=AXIS2_PLACEMENT_3D('',#2157,#1718,#1719);
#1464=AXIS2_PLACEMENT_3D('',#2163,#1723,#1724);
#1465=AXIS2_PLACEMENT_3D('',#2174,#1731,#1732);
#1466=AXIS2_PLACEMENT_3D('',#2177,#1735,#1736);
#1467=AXIS2_PLACEMENT_3D('',#2180,#1739,#1740);
#1468=AXIS2_PLACEMENT_3D('',#2183,#1743,#1744);
#1469=AXIS2_PLACEMENT_3D('',#2186,#1747,#1748);
#1470=AXIS2_PLACEMENT_3D('',#2187,#1749,#1750);
#1471=AXIS2_PLACEMENT_3D('',#2188,#1751,#1752);
#1472=AXIS2_PLACEMENT_3D('',#2189,#1753,#1754);
#1473=AXIS2_PLACEMENT_3D('',#2190,#1755,#1756);
#1474=AXIS2_PLACEMENT_3D('',#2193,#1759,#1760);
#1475=AXIS2_PLACEMENT_3D('',#2195,#1762,#1763);
#1476=AXIS2_PLACEMENT_3D('',#2197,#1765,#1766);
#1477=AXIS2_PLACEMENT_3D('',#2198,#1767,#1768);
#1478=AXIS2_PLACEMENT_3D('',#2201,#1771,#1772);
#1479=AXIS2_PLACEMENT_3D('',#2204,#1774,#1775);
#1480=AXIS2_PLACEMENT_3D('',#2208,#1778,#1779);
#1481=AXIS2_PLACEMENT_3D('',#2211,#1782,#1783);
#1482=AXIS2_PLACEMENT_3D('',#2218,#1788,#1789);
#1483=AXIS2_PLACEMENT_3D('',#2222,#1792,#1793);
#1484=AXIS2_PLACEMENT_3D('',#2230,#1794,#1795);
#1485=AXIS2_PLACEMENT_3D('',#2234,#1798,#1799);
#1486=AXIS2_PLACEMENT_3D('',#2236,#1801,#1802);
#1487=AXIS2_PLACEMENT_3D('',#2240,#1805,#1806);
#1488=AXIS2_PLACEMENT_3D('',#2242,#1808,#1809);
#1489=AXIS2_PLACEMENT_3D('',#2246,#1812,#1813);
#1490=AXIS2_PLACEMENT_3D('',#2248,#1815,#1816);
#1491=AXIS2_PLACEMENT_3D('',#2249,#1817,#1818);
#1492=AXIS2_PLACEMENT_3D('',#2250,#1819,#1820);
#1493=AXIS2_PLACEMENT_3D('',#2251,#1821,#1822);
#1494=AXIS2_PLACEMENT_3D('',#2253,#1824,#1825);
#1495=AXIS2_PLACEMENT_3D('',#2254,#1826,#1827);
#1496=AXIS2_PLACEMENT_3D('',#2256,#1829,#1830);
#1497=AXIS2_PLACEMENT_3D('',#2257,#1831,#1832);
#1498=AXIS2_PLACEMENT_3D('',#2260,#1835,#1836);
#1499=AXIS2_PLACEMENT_3D('',#2263,#1839,#1840);
#1500=AXIS2_PLACEMENT_3D('',#2266,#1843,#1844);
#1501=AXIS2_PLACEMENT_3D('',#2269,#1847,#1848);
#1502=AXIS2_PLACEMENT_3D('',#2270,#1849,#1850);
#1503=AXIS2_PLACEMENT_3D('',#2271,#1851,#1852);
#1504=AXIS2_PLACEMENT_3D('',#2272,#1853,#1854);
#1505=AXIS2_PLACEMENT_3D('',#2273,#1855,#1856);
#1506=AXIS2_PLACEMENT_3D('',#2274,#1857,#1858);
#1507=AXIS2_PLACEMENT_3D('',#2275,#1859,#1860);
#1508=AXIS2_PLACEMENT_3D('',#2276,#1861,#1862);
#1509=AXIS2_PLACEMENT_3D('',#2277,#1863,#1864);
#1510=AXIS2_PLACEMENT_3D('',#2279,#1866,#1867);
#1511=AXIS2_PLACEMENT_3D('',#2281,#1869,#1870);
#1512=AXIS2_PLACEMENT_3D('',#2282,#1871,#1872);
#1513=AXIS2_PLACEMENT_3D('',#2284,#1874,#1875);
#1514=AXIS2_PLACEMENT_3D('',#2286,#1877,#1878);
#1515=DIRECTION('',(0.,0.,1.));
#1516=DIRECTION('',(1.,0.,0.));
#1517=DIRECTION('',(0.,-1.,0.));
#1518=DIRECTION('',(1.,0.,0.));
#1519=DIRECTION('',(-1.,0.,-8.59612332808138E-17));
#1520=DIRECTION('',(3.41480999208033E-16,0.,1.));
#1521=DIRECTION('',(-1.,0.,-1.52702515017566E-16));
#1522=DIRECTION('',(0.,0.,-1.));
#1523=DIRECTION('',(0.,-1.,0.));
#1524=DIRECTION('',(1.,0.,0.));
#1525=DIRECTION('',(-1.,0.,-1.28941849921221E-16));
#1526=DIRECTION('',(3.41480999208033E-16,0.,-1.));
#1527=DIRECTION('',(-1.,0.,-1.52702515017566E-16));
#1528=DIRECTION('',(0.,0.,1.));
#1529=DIRECTION('',(-1.,0.,-1.70740499604017E-16));
#1530=DIRECTION('',(0.,0.,-1.));
#1531=DIRECTION('',(1.,0.,0.));
#1532=DIRECTION('',(0.,0.,1.));
#1533=DIRECTION('',(1.52702515017566E-16,0.,-1.));
#1534=DIRECTION('',(-1.,0.,-1.52702515017566E-16));
#1535=DIRECTION('',(0.,1.,0.));
#1536=DIRECTION('',(-1.,0.,-1.52702515017566E-16));
#1537=DIRECTION('',(0.,1.,0.));
#1538=DIRECTION('',(-1.,0.,-1.52702515017566E-16));
#1539=DIRECTION('',(0.,1.,0.));
#1540=DIRECTION('',(1.,0.,1.52702515017566E-16));
#1541=DIRECTION('',(0.,1.,0.));
#1542=DIRECTION('',(1.28941849921221E-16,0.,-1.));
#1543=DIRECTION('',(-1.,0.,-1.28941849921221E-16));
#1544=DIRECTION('',(0.,1.,0.));
#1545=DIRECTION('',(0.,1.,0.));
#1546=DIRECTION('',(1.,0.,1.28941849921221E-16));
#1547=DIRECTION('',(0.,1.,0.));
#1548=DIRECTION('',(-1.,0.,-1.28941849921221E-16));
#1549=DIRECTION('',(0.,1.,0.));
#1550=DIRECTION('',(-1.,0.,-1.28941849921221E-16));
#1551=DIRECTION('',(0.,-1.,0.));
#1552=DIRECTION('',(1.,0.,0.));
#1553=DIRECTION('',(1.,0.,0.));
#1554=DIRECTION('',(0.,-1.,0.));
#1555=DIRECTION('',(0.,0.,-1.));
#1556=DIRECTION('',(-1.36592399683213E-16,0.,-1.));
#1557=DIRECTION('',(0.,-1.,0.));
#1558=DIRECTION('',(0.,0.,-1.));
#1559=DIRECTION('',(-1.,0.,2.43914999434309E-16));
#1560=DIRECTION('',(0.,-1.,0.));
#1561=DIRECTION('',(0.,0.,-1.));
#1562=DIRECTION('',(0.,0.,-1.));
#1563=DIRECTION('',(0.,-1.,0.));
#1564=DIRECTION('',(0.,0.,-1.));
#1565=DIRECTION('',(-1.,0.,0.));
#1566=DIRECTION('',(0.,-1.,0.));
#1567=DIRECTION('',(0.,0.,-1.));
#1568=DIRECTION('',(0.,0.,1.));
#1569=DIRECTION('',(0.,-1.,0.));
#1570=DIRECTION('',(0.,0.,-1.));
#1571=DIRECTION('',(1.,0.,-1.57606615019092E-16));
#1572=DIRECTION('',(0.,-1.,0.));
#1573=DIRECTION('',(0.,0.,-1.));
#1574=DIRECTION('',(0.,0.,-1.));
#1575=DIRECTION('',(0.,-1.,0.));
#1576=DIRECTION('',(0.,0.,-1.));
#1577=DIRECTION('',(0.,0.,1.));
#1578=DIRECTION('',(0.,-1.,0.));
#1579=DIRECTION('',(0.,0.,-1.));
#1580=DIRECTION('',(1.,0.,0.));
#1581=DIRECTION('',(0.,-1.,0.));
#1582=DIRECTION('',(0.,0.,-1.));
#1583=DIRECTION('',(0.,0.,1.));
#1584=DIRECTION('',(0.,-1.,0.));
#1585=DIRECTION('',(0.,0.,-1.));
#1586=DIRECTION('',(1.,0.,0.));
#1587=DIRECTION('',(0.,-1.,0.));
#1588=DIRECTION('',(0.,0.,-1.));
#1589=DIRECTION('',(0.,1.,0.));
#1590=DIRECTION('',(-1.,0.,0.));
#1591=DIRECTION('',(0.,0.,-1.));
#1592=DIRECTION('',(0.,0.,-1.));
#1593=DIRECTION('',(1.,0.,8.59612332808139E-17));
#1594=DIRECTION('',(1.,0.,0.));
#1595=DIRECTION('',(0.,-1.,0.));
#1596=DIRECTION('',(0.,0.,-1.));
#1597=DIRECTION('',(0.,0.,-1.));
#1598=DIRECTION('',(0.,-1.,0.));
#1599=DIRECTION('',(0.,0.,-1.));
#1600=DIRECTION('',(-1.,0.,2.43914999434309E-16));
#1601=DIRECTION('',(0.,-1.,0.));
#1602=DIRECTION('',(0.,0.,-1.));
#1603=DIRECTION('',(-1.36592399683213E-16,0.,-1.));
#1604=DIRECTION('',(0.,-1.,0.));
#1605=DIRECTION('',(0.,0.,-1.));
#1606=DIRECTION('',(1.,0.,0.));
#1607=DIRECTION('',(0.,1.,0.));
#1608=DIRECTION('',(0.,0.,1.));
#1609=DIRECTION('',(0.,0.,1.));
#1610=DIRECTION('',(0.,1.,0.));
#1611=DIRECTION('',(0.,0.,1.));
#1612=DIRECTION('',(1.,0.,0.));
#1613=DIRECTION('',(0.,1.,0.));
#1614=DIRECTION('',(0.,0.,1.));
#1615=DIRECTION('',(0.,0.,1.));
#1616=DIRECTION('',(0.,1.,0.));
#1617=DIRECTION('',(0.,0.,1.));
#1618=DIRECTION('',(0.,-1.,0.));
#1619=DIRECTION('',(1.,0.,0.));
#1620=DIRECTION('',(3.41480999208033E-16,0.,1.));
#1621=DIRECTION('',(-1.,0.,-8.59612332808138E-17));
#1622=DIRECTION('',(0.,0.,1.));
#1623=DIRECTION('',(1.,0.,0.));
#1624=DIRECTION('',(0.,0.,-1.));
#1625=DIRECTION('',(-1.,0.,-1.70740499604017E-16));
#1626=DIRECTION('',(0.,0.,1.));
#1627=DIRECTION('',(-1.,0.,-1.52702515017566E-16));
#1628=DIRECTION('',(-1.,0.,0.));
#1629=DIRECTION('',(0.,0.,1.));
#1630=DIRECTION('',(0.,0.,1.));
#1631=DIRECTION('',(0.,-1.,0.));
#1632=DIRECTION('',(0.,1.,0.));
#1633=DIRECTION('',(0.,-1.,0.));
#1634=DIRECTION('',(-1.70740499604017E-16,0.,1.));
#1635=DIRECTION('',(1.,0.,1.70740499604017E-16));
#1636=DIRECTION('',(-1.,0.,-1.70740499604017E-16));
#1637=DIRECTION('',(0.,-1.,0.));
#1638=DIRECTION('',(0.,1.,0.));
#1639=DIRECTION('',(-1.70740499604017E-16,0.,1.));
#1640=DIRECTION('',(1.,0.,1.70740499604017E-16));
#1641=DIRECTION('',(0.,-1.,0.));
#1642=DIRECTION('',(-1.,0.,-1.70740499604017E-16));
#1643=DIRECTION('',(0.,1.,0.));
#1644=DIRECTION('',(0.,-1.,0.));
#1645=DIRECTION('',(1.,0.,0.));
#1646=DIRECTION('',(0.,0.,-1.));
#1647=DIRECTION('',(1.,0.,-1.13826999736011E-16));
#1648=DIRECTION('',(0.,0.,-1.));
#1649=DIRECTION('',(-1.,0.,0.));
#1650=DIRECTION('',(0.,0.,1.));
#1651=DIRECTION('',(0.,-1.,0.));
#1652=DIRECTION('',(0.,0.,-1.));
#1653=DIRECTION('',(-1.,0.,0.));
#1654=DIRECTION('',(0.,-1.,0.));
#1655=DIRECTION('',(0.,0.,-1.));
#1656=DIRECTION('',(0.,0.,-1.));
#1657=DIRECTION('',(0.,-1.,0.));
#1658=DIRECTION('',(0.,0.,-1.));
#1659=DIRECTION('',(1.,0.,-1.57606615019092E-16));
#1660=DIRECTION('',(0.,-1.,0.));
#1661=DIRECTION('',(0.,0.,-1.));
#1662=DIRECTION('',(-1.,0.,0.));
#1663=DIRECTION('',(0.,0.,1.));
#1664=DIRECTION('',(0.,1.,-1.21957499717155E-16));
#1665=DIRECTION('',(0.,0.,1.));
#1666=DIRECTION('',(0.,1.,-1.21957499717155E-16));
#1667=DIRECTION('',(0.,0.,1.));
#1668=DIRECTION('',(0.,0.,-1.));
#1669=DIRECTION('',(0.,-1.,0.));
#1670=DIRECTION('',(0.,0.,-1.));
#1671=DIRECTION('',(0.,-1.,0.));
#1672=DIRECTION('',(0.,-1.,0.));
#1673=DIRECTION('',(0.,0.,-1.));
#1674=DIRECTION('',(0.,-1.,0.));
#1675=DIRECTION('',(0.,0.,1.));
#1676=DIRECTION('',(0.,0.,-1.));
#1677=DIRECTION('',(0.,1.,0.));
#1678=DIRECTION('',(0.,1.,0.));
#1679=DIRECTION('',(0.,1.,0.));
#1680=DIRECTION('',(-1.,0.,0.));
#1681=DIRECTION('',(1.,0.,-1.13826999736011E-16));
#1682=DIRECTION('',(0.,0.,-1.));
#1683=DIRECTION('',(1.,0.,0.));
#1684=DIRECTION('',(1.,0.,1.52702515017566E-16));
#1685=DIRECTION('',(0.,0.,-1.));
#1686=DIRECTION('',(1.,0.,0.));
#1687=DIRECTION('',(0.,0.,1.));
#1688=DIRECTION('',(-1.,0.,0.));
#1689=DIRECTION('',(0.,0.,1.));
#1690=DIRECTION('',(-1.,0.,0.));
#1691=DIRECTION('',(0.,0.,-1.));
#1692=DIRECTION('',(1.13826999736011E-16,0.,1.));
#1693=DIRECTION('',(1.,0.,-1.13826999736011E-16));
#1694=DIRECTION('',(1.13826999736011E-16,0.,1.));
#1695=DIRECTION('',(1.,0.,-1.13826999736011E-16));
#1696=DIRECTION('',(0.,-1.,0.));
#1697=DIRECTION('',(0.,1.,0.));
#1698=DIRECTION('',(1.,0.,-1.13826999736011E-16));
#1699=DIRECTION('',(0.,0.,-1.));
#1700=DIRECTION('',(-1.,0.,0.));
#1701=DIRECTION('',(0.,-1.,0.));
#1702=DIRECTION('',(0.,-1.,0.));
#1703=DIRECTION('',(-1.,0.,0.));
#1704=DIRECTION('',(0.,-1.,0.));
#1705=DIRECTION('',(-1.,0.,0.));
#1706=DIRECTION('',(0.,-1.,0.));
#1707=DIRECTION('',(1.,0.,0.));
#1708=DIRECTION('',(3.41480999208033E-16,0.,-1.));
#1709=DIRECTION('',(1.52702515017566E-16,0.,-1.));
#1710=DIRECTION('',(-1.,0.,-1.52702515017566E-16));
#1711=DIRECTION('',(-1.,0.,-1.52702515017566E-16));
#1712=DIRECTION('',(0.,-1.,0.));
#1713=DIRECTION('',(0.,1.,0.));
#1714=DIRECTION('',(0.,-1.,0.));
#1715=DIRECTION('',(-1.,0.,0.));
#1716=DIRECTION('',(0.,0.,1.));
#1717=DIRECTION('',(0.,0.,1.));
#1718=DIRECTION('',(8.59612332808138E-17,0.,-1.));
#1719=DIRECTION('',(-1.,0.,-8.59612332808139E-17));
#1720=DIRECTION('',(0.,-1.,0.));
#1721=DIRECTION('',(-1.,0.,-8.59612332808139E-17));
#1722=DIRECTION('',(0.,-1.,0.));
#1723=DIRECTION('',(-1.,0.,0.));
#1724=DIRECTION('',(0.,0.,1.));
#1725=DIRECTION('',(0.,1.,0.));
#1726=DIRECTION('',(0.,1.,0.));
#1727=DIRECTION('',(0.,0.,1.));
#1728=DIRECTION('',(0.,1.,-1.21957499717155E-16));
#1729=DIRECTION('',(0.,0.,1.));
#1730=DIRECTION('',(0.,1.,-1.21957499717155E-16));
#1731=DIRECTION('',(-1.,0.,0.));
#1732=DIRECTION('',(0.,-1.,0.));
#1733=DIRECTION('',(0.,1.,0.));
#1734=DIRECTION('',(0.,1.,0.));
#1735=DIRECTION('',(1.,0.,-1.36592399683213E-16));
#1736=DIRECTION('',(-1.36592399683213E-16,0.,-1.));
#1737=DIRECTION('',(0.,1.,0.));
#1738=DIRECTION('',(0.,1.,0.));
#1739=DIRECTION('',(-2.43914999434309E-16,0.,-1.));
#1740=DIRECTION('',(-1.,0.,2.43914999434309E-16));
#1741=DIRECTION('',(0.,1.,0.));
#1742=DIRECTION('',(0.,1.,0.));
#1743=DIRECTION('',(0.,0.,1.));
#1744=DIRECTION('',(1.,0.,0.));
#1745=DIRECTION('',(0.,1.,0.));
#1746=DIRECTION('',(0.,1.,0.));
#1747=DIRECTION('',(0.,1.,0.));
#1748=DIRECTION('',(0.,0.,1.));
#1749=DIRECTION('',(0.,1.,0.));
#1750=DIRECTION('',(0.,0.,1.));
#1751=DIRECTION('',(0.,1.,0.));
#1752=DIRECTION('',(0.,0.,1.));
#1753=DIRECTION('',(0.,1.,0.));
#1754=DIRECTION('',(0.,0.,1.));
#1755=DIRECTION('',(0.,1.21957499717155E-16,1.));
#1756=DIRECTION('',(0.,-1.,1.21957499717155E-16));
#1757=DIRECTION('',(-1.,0.,0.));
#1758=DIRECTION('',(-1.,0.,0.));
#1759=DIRECTION('',(0.,-1.,0.));
#1760=DIRECTION('',(0.,0.,-1.));
#1761=DIRECTION('',(-1.,0.,0.));
#1762=DIRECTION('',(0.,1.21957499717155E-16,1.));
#1763=DIRECTION('',(0.,-1.,1.21957499717155E-16));
#1764=DIRECTION('',(-1.,0.,0.));
#1765=DIRECTION('',(0.,-1.,0.));
#1766=DIRECTION('',(0.,0.,-1.));
#1767=DIRECTION('',(0.,0.,-1.));
#1768=DIRECTION('',(-1.,0.,0.));
#1769=DIRECTION('',(0.,1.,0.));
#1770=DIRECTION('',(0.,1.,0.));
#1771=DIRECTION('',(1.57606615019092E-16,0.,1.));
#1772=DIRECTION('',(1.,0.,-1.57606615019092E-16));
#1773=DIRECTION('',(0.,1.,0.));
#1774=DIRECTION('',(1.57606615019092E-16,0.,1.));
#1775=DIRECTION('',(1.,0.,-1.57606615019092E-16));
#1776=DIRECTION('',(0.,1.,0.));
#1777=DIRECTION('',(0.,1.,0.));
#1778=DIRECTION('',(1.,0.,0.));
#1779=DIRECTION('',(0.,0.,-1.));
#1780=DIRECTION('',(0.,1.,0.));
#1781=DIRECTION('',(0.,1.,0.));
#1782=DIRECTION('',(0.,-1.,0.));
#1783=DIRECTION('',(1.,0.,0.));
#1784=DIRECTION('',(0.,0.,1.));
#1785=DIRECTION('',(-1.,0.,0.));
#1786=DIRECTION('',(-1.,0.,0.));
#1787=DIRECTION('',(0.,0.,1.));
#1788=DIRECTION('',(1.,0.,0.));
#1789=DIRECTION('',(0.,0.,-1.));
#1790=DIRECTION('',(0.,-1.,0.));
#1791=DIRECTION('',(0.,0.,-1.));
#1792=DIRECTION('',(1.57606615019092E-16,0.,1.));
#1793=DIRECTION('',(1.,0.,-1.57606615019092E-16));
#1794=DIRECTION('',(0.,0.,-1.));
#1795=DIRECTION('',(-1.,0.,0.));
#1796=DIRECTION('',(1.,0.,0.));
#1797=DIRECTION('',(0.,-1.,0.));
#1798=DIRECTION('',(1.,0.,0.));
#1799=DIRECTION('',(0.,0.,-1.));
#1800=DIRECTION('',(0.,0.,1.));
#1801=DIRECTION('',(0.,0.,1.));
#1802=DIRECTION('',(1.,0.,0.));
#1803=DIRECTION('',(-1.,0.,0.));
#1804=DIRECTION('',(0.,-1.,0.));
#1805=DIRECTION('',(1.,0.,0.));
#1806=DIRECTION('',(0.,0.,-1.));
#1807=DIRECTION('',(0.,0.,1.));
#1808=DIRECTION('',(0.,0.,-1.));
#1809=DIRECTION('',(-1.,0.,0.));
#1810=DIRECTION('',(1.,0.,0.));
#1811=DIRECTION('',(0.,-1.,0.));
#1812=DIRECTION('',(-1.,0.,0.));
#1813=DIRECTION('',(0.,0.,1.));
#1814=DIRECTION('',(0.,0.,-1.));
#1815=DIRECTION('',(0.,-1.,0.));
#1816=DIRECTION('',(1.,0.,0.));
#1817=DIRECTION('',(0.,-1.,0.));
#1818=DIRECTION('',(1.,0.,0.));
#1819=DIRECTION('',(0.,-1.,0.));
#1820=DIRECTION('',(1.,0.,0.));
#1821=DIRECTION('',(-1.,0.,0.));
#1822=DIRECTION('',(0.,0.,1.));
#1823=DIRECTION('',(0.,-1.,0.));
#1824=DIRECTION('',(0.,0.,-1.));
#1825=DIRECTION('',(-1.,0.,0.));
#1826=DIRECTION('',(-1.,0.,0.));
#1827=DIRECTION('',(0.,0.,1.));
#1828=DIRECTION('',(0.,-1.,0.));
#1829=DIRECTION('',(0.,0.,-1.));
#1830=DIRECTION('',(-1.,0.,0.));
#1831=DIRECTION('',(0.,0.,1.));
#1832=DIRECTION('',(1.,0.,0.));
#1833=DIRECTION('',(0.,1.,0.));
#1834=DIRECTION('',(0.,1.,0.));
#1835=DIRECTION('',(-1.,0.,0.));
#1836=DIRECTION('',(0.,0.,1.));
#1837=DIRECTION('',(0.,1.,0.));
#1838=DIRECTION('',(0.,1.,0.));
#1839=DIRECTION('',(0.,0.,1.));
#1840=DIRECTION('',(1.,0.,0.));
#1841=DIRECTION('',(0.,1.,0.));
#1842=DIRECTION('',(0.,1.,0.));
#1843=DIRECTION('',(-1.,0.,0.));
#1844=DIRECTION('',(0.,0.,1.));
#1845=DIRECTION('',(0.,1.,0.));
#1846=DIRECTION('',(0.,1.,0.));
#1847=DIRECTION('',(0.,-1.,0.));
#1848=DIRECTION('',(0.,0.,-1.));
#1849=DIRECTION('',(0.,1.,0.));
#1850=DIRECTION('',(0.,0.,1.));
#1851=DIRECTION('',(0.,-1.,0.));
#1852=DIRECTION('',(0.,0.,-1.));
#1853=DIRECTION('',(0.,1.,0.));
#1854=DIRECTION('',(0.,0.,1.));
#1855=DIRECTION('',(0.,1.,0.));
#1856=DIRECTION('',(0.,0.,1.));
#1857=DIRECTION('',(0.,1.,0.));
#1858=DIRECTION('',(0.,0.,1.));
#1859=DIRECTION('',(0.,1.,0.));
#1860=DIRECTION('',(0.,0.,1.));
#1861=DIRECTION('',(0.,1.,0.));
#1862=DIRECTION('',(0.,0.,1.));
#1863=DIRECTION('',(1.,0.,-3.41480999208033E-16));
#1864=DIRECTION('',(-3.41480999208033E-16,0.,-1.));
#1865=DIRECTION('',(3.41480999208033E-16,0.,1.));
#1866=DIRECTION('',(1.,0.,-3.41480999208033E-16));
#1867=DIRECTION('',(-3.41480999208033E-16,0.,-1.));
#1868=DIRECTION('',(3.41480999208033E-16,0.,1.));
#1869=DIRECTION('',(0.,-1.,0.));
#1870=DIRECTION('',(1.,0.,0.));
#1871=DIRECTION('',(-1.,0.,-3.41480999208033E-16));
#1872=DIRECTION('',(-3.41480999208033E-16,0.,1.));
#1873=DIRECTION('',(3.41480999208033E-16,0.,-1.));
#1874=DIRECTION('',(-1.,0.,-3.41480999208033E-16));
#1875=DIRECTION('',(-3.41480999208033E-16,0.,1.));
#1876=DIRECTION('',(3.41480999208033E-16,0.,-1.));
#1877=DIRECTION('',(0.,-1.,0.));
#1878=DIRECTION('',(1.,0.,0.));
#1879=CARTESIAN_POINT('',(0.,0.,0.));
#1880=CARTESIAN_POINT('',(0.,-0.01778,3.46944695195361E-18));
#1881=CARTESIAN_POINT('',(0.,-0.01778,0.014224));
#1882=CARTESIAN_POINT('',(-0.0147828,-0.01778,0.014224));
#1883=CARTESIAN_POINT('',(-0.0201803,-0.01778,0.014224));
#1884=CARTESIAN_POINT('',(-0.0147828,-0.01778,0.015494));
#1885=CARTESIAN_POINT('',(-0.0147828,-0.01778,0.016764));
#1886=CARTESIAN_POINT('',(0.,-0.01778,0.016764));
#1887=CARTESIAN_POINT('',(-0.0201803,-0.01778,0.016764));
#1888=CARTESIAN_POINT('',(-0.0201803,-0.01778,-3.46944695195361E-18));
#1889=CARTESIAN_POINT('',(0.,-0.01778,3.46944695195361E-18));
#1890=CARTESIAN_POINT('',(1.7347234759768E-18,-0.01778,-0.014224));
#1891=CARTESIAN_POINT('',(0.0201803,-0.01778,-0.014224));
#1892=CARTESIAN_POINT('',(-0.0103378,-0.01778,-0.014224));
#1893=CARTESIAN_POINT('',(-0.0103378,-0.01778,-0.015494));
#1894=CARTESIAN_POINT('',(-0.0103378,-0.01778,-0.016764));
#1895=CARTESIAN_POINT('',(0.,-0.01778,-0.016764));
#1896=CARTESIAN_POINT('',(0.0227203,-0.01778,-0.016764));
#1897=CARTESIAN_POINT('',(0.0227203,-0.01778,6.93889390390723E-18));
#1898=CARTESIAN_POINT('',(0.0227203,-0.01778,-0.00254));
#1899=CARTESIAN_POINT('',(0.0214525666087866,-0.01778,-0.00254));
#1900=CARTESIAN_POINT('',(0.0215838644653558,-0.01778,-0.00254));
#1901=CARTESIAN_POINT('',(0.0215838644653558,-0.01778,0.000750903025627137));
#1902=CARTESIAN_POINT('',(0.0215838644653558,-0.01778,-0.00688019394874573));
#1903=CARTESIAN_POINT('',(0.0198916969820857,-0.01778,-0.00688019394874573));
#1904=CARTESIAN_POINT('',(0.0201803,-0.01778,-0.00688019394874573));
#1905=CARTESIAN_POINT('',(0.0201803,-0.01778,5.20417042793042E-18));
#1906=CARTESIAN_POINT('',(0.,-0.01778,-0.016764));
#1907=CARTESIAN_POINT('',(-0.0103378,-0.01778,-0.016764));
#1908=CARTESIAN_POINT('',(-0.0103378,-0.008636,-0.016764));
#1909=CARTESIAN_POINT('',(0.,-0.008636,-0.016764));
#1910=CARTESIAN_POINT('',(-0.0147828,-0.008636,-0.016764));
#1911=CARTESIAN_POINT('',(-0.0147828,-0.01778,-0.016764));
#1912=CARTESIAN_POINT('',(-0.0147828,-0.01778,-0.016764));
#1913=CARTESIAN_POINT('',(0.,-0.01778,-0.016764));
#1914=CARTESIAN_POINT('',(-0.0201803,-0.01778,-0.016764));
#1915=CARTESIAN_POINT('',(-0.0201803,-0.03048,-0.016764));
#1916=CARTESIAN_POINT('',(-0.0201803,-0.00254,-0.016764));
#1917=CARTESIAN_POINT('',(0.,-0.00254,-0.016764));
#1918=CARTESIAN_POINT('',(0.0227203,-0.00254,-0.016764));
#1919=CARTESIAN_POINT('',(0.0227203,-0.01778,-0.016764));
#1920=CARTESIAN_POINT('',(1.7347234759768E-18,-0.01778,-0.014224));
#1921=CARTESIAN_POINT('',(-0.0103378,-0.01778,-0.014224));
#1922=CARTESIAN_POINT('',(-0.0103378,-0.008636,-0.014224));
#1923=CARTESIAN_POINT('',(0.0201803,-0.01778,-0.014224));
#1924=CARTESIAN_POINT('',(0.0201803,-0.00254,-0.014224));
#1925=CARTESIAN_POINT('',(1.7347234759768E-18,-0.00254,-0.014224));
#1926=CARTESIAN_POINT('',(-0.0201803,-0.00254,-0.014224));
#1927=CARTESIAN_POINT('',(-0.0201803,-0.01778,-0.014224));
#1928=CARTESIAN_POINT('',(-0.0201803,-0.01778,-0.014224));
#1929=CARTESIAN_POINT('',(1.7347234759768E-18,-0.01778,-0.014224));
#1930=CARTESIAN_POINT('',(-0.0147828,-0.01778,-0.014224));
#1931=CARTESIAN_POINT('',(-0.0147828,-0.01778,-0.014224));
#1932=CARTESIAN_POINT('',(-0.0147828,-0.008636,-0.014224));
#1933=CARTESIAN_POINT('',(1.7347234759768E-18,-0.008636,-0.014224));
#1934=CARTESIAN_POINT('',(0.,0.,3.46944695195361E-18));
#1935=CARTESIAN_POINT('',(0.0130683,0.,0.005842));
#1936=CARTESIAN_POINT('',(0.0090223594,0.,0.005842));
#1937=CARTESIAN_POINT('',(0.0130502406,0.,0.005842));
#1938=CARTESIAN_POINT('',(0.0090223594,0.,0.0027759406));
#1939=CARTESIAN_POINT('',(0.0059563,0.,0.0027759406));
#1940=CARTESIAN_POINT('',(0.0059563,0.,-8.67361737988404E-19));
#1941=CARTESIAN_POINT('',(0.0059563,0.,-0.0020139406));
#1942=CARTESIAN_POINT('',(0.0090223594,0.,-0.0020139406));
#1943=CARTESIAN_POINT('',(0.0090223594,0.,-0.00508));
#1944=CARTESIAN_POINT('',(0.0130683,0.,-0.00508));
#1945=CARTESIAN_POINT('',(0.0130502406,0.,-0.00508));
#1946=CARTESIAN_POINT('',(0.0130502406,0.,-0.0020139406));
#1947=CARTESIAN_POINT('',(0.0161163,0.,-0.0020139406));
#1948=CARTESIAN_POINT('',(0.0161163,0.,-2.60208521396521E-18));
#1949=CARTESIAN_POINT('',(0.0161163,0.,0.0027759406));
#1950=CARTESIAN_POINT('',(0.0130502406,0.,0.0027759406));
#1951=CARTESIAN_POINT('',(0.0102997,0.,-0.02667));
#1952=CARTESIAN_POINT('',(0.0369697,0.,-0.02667));
#1953=CARTESIAN_POINT('',(-0.0163703,0.,-0.02667));
#1954=CARTESIAN_POINT('',(-0.0163703,0.,-0.02032));
#1955=CARTESIAN_POINT('',(-0.0227203,0.,-0.02032));
#1956=CARTESIAN_POINT('',(-0.0227203,0.,0.));
#1957=CARTESIAN_POINT('',(-0.0227203,0.,0.02032));
#1958=CARTESIAN_POINT('',(-0.0163703,0.,0.02032));
#1959=CARTESIAN_POINT('',(-0.0163703,0.,0.02667));
#1960=CARTESIAN_POINT('',(0.0102997,0.,0.02667));
#1961=CARTESIAN_POINT('',(0.0369697,0.,0.02667));
#1962=CARTESIAN_POINT('',(0.0369697,0.,0.02032));
#1963=CARTESIAN_POINT('',(0.0433197,0.,0.02032));
#1964=CARTESIAN_POINT('',(0.0433197,0.,0.));
#1965=CARTESIAN_POINT('',(0.0433197,0.,-0.02032));
#1966=CARTESIAN_POINT('',(0.0369697,0.,-0.02032));
#1967=CARTESIAN_POINT('',(-0.0118201278110105,0.,0.01016));
#1968=CARTESIAN_POINT('',(-0.0118201278110105,0.,0.0100115199548868));
#1969=CARTESIAN_POINT('',(-0.0118201278110105,0.,0.0103084800451132));
#1970=CARTESIAN_POINT('',(-0.0094286078561237,0.,0.0100115199548868));
#1971=CARTESIAN_POINT('',(-0.0094286078561237,0.,0.00762));
#1972=CARTESIAN_POINT('',(-0.00928012781101049,0.,0.00762));
#1973=CARTESIAN_POINT('',(-0.00913164776589728,0.,0.00762));
#1974=CARTESIAN_POINT('',(-0.00913164776589728,0.,0.0100115199548868));
#1975=CARTESIAN_POINT('',(-0.00674012781101049,0.,0.0100115199548868));
#1976=CARTESIAN_POINT('',(-0.00674012781101049,0.,0.01016));
#1977=CARTESIAN_POINT('',(-0.00674012781101049,0.,0.0103084800451132));
#1978=CARTESIAN_POINT('',(-0.00913164776589728,0.,0.0103084800451132));
#1979=CARTESIAN_POINT('',(-0.00913164776589728,0.,0.0127));
#1980=CARTESIAN_POINT('',(-0.00928012781101049,0.,0.0127));
#1981=CARTESIAN_POINT('',(-0.0094286078561237,0.,0.0127));
#1982=CARTESIAN_POINT('',(-0.0094286078561237,0.,0.0103084800451132));
#1983=CARTESIAN_POINT('',(0.0102997,-0.00254,0.));
#1984=CARTESIAN_POINT('',(-0.0201803,-0.00254,-1.7347234759768E-18));
#1985=CARTESIAN_POINT('',(-0.0201803,-0.00254,0.014224));
#1986=CARTESIAN_POINT('',(0.0201803,-0.00254,5.20417042793042E-18));
#1987=CARTESIAN_POINT('',(0.0201803,-0.00254,0.014224));
#1988=CARTESIAN_POINT('',(0.,-0.00254,0.014224));
#1989=CARTESIAN_POINT('',(0.0130683,-0.00254,0.005842));
#1990=CARTESIAN_POINT('',(0.0090223594,-0.00254,0.005842));
#1991=CARTESIAN_POINT('',(0.0130502406,-0.00254,0.005842));
#1992=CARTESIAN_POINT('',(0.0130502406,-0.00254,0.0027759406));
#1993=CARTESIAN_POINT('',(0.0161163,-0.00254,0.0027759406));
#1994=CARTESIAN_POINT('',(0.0161163,-0.00254,-2.60208521396521E-18));
#1995=CARTESIAN_POINT('',(0.0161163,-0.00254,-0.0020139406));
#1996=CARTESIAN_POINT('',(0.0130502406,-0.00254,-0.0020139406));
#1997=CARTESIAN_POINT('',(0.0130502406,-0.00254,-0.00508));
#1998=CARTESIAN_POINT('',(0.0130683,-0.00254,-0.00508));
#1999=CARTESIAN_POINT('',(0.0090223594,-0.00254,-0.00508));
#2000=CARTESIAN_POINT('',(0.0090223594,-0.00254,-0.0020139406));
#2001=CARTESIAN_POINT('',(0.0059563,-0.00254,-0.0020139406));
#2002=CARTESIAN_POINT('',(0.0059563,-0.00254,-8.67361737988404E-19));
#2003=CARTESIAN_POINT('',(0.0059563,-0.00254,0.0027759406));
#2004=CARTESIAN_POINT('',(0.0090223594,-0.00254,0.0027759406));
#2005=CARTESIAN_POINT('',(0.0102997,-0.00254,0.00762));
#2006=CARTESIAN_POINT('',(-0.0094286078561237,-0.00254,0.00762));
#2007=CARTESIAN_POINT('',(-0.00913164776589728,-0.00254,0.00762));
#2008=CARTESIAN_POINT('',(-0.0094286078561237,-0.00254,0.0100115199548868));
#2009=CARTESIAN_POINT('',(-0.0118201278110105,-0.00254,0.0100115199548868));
#2010=CARTESIAN_POINT('',(-0.0118201278110105,-0.00254,0.));
#2011=CARTESIAN_POINT('',(-0.0118201278110105,-0.00254,0.0103084800451132));
#2012=CARTESIAN_POINT('',(-0.0094286078561237,-0.00254,0.0103084800451132));
#2013=CARTESIAN_POINT('',(-0.0094286078561237,-0.00254,0.0127));
#2014=CARTESIAN_POINT('',(0.0102997,-0.00254,0.0127));
#2015=CARTESIAN_POINT('',(-0.00913164776589728,-0.00254,0.0127));
#2016=CARTESIAN_POINT('',(-0.00913164776589728,-0.00254,0.0103084800451132));
#2017=CARTESIAN_POINT('',(-0.00674012781101049,-0.00254,0.0103084800451132));
#2018=CARTESIAN_POINT('',(-0.00674012781101049,-0.00254,0.));
#2019=CARTESIAN_POINT('',(-0.00674012781101049,-0.00254,0.0100115199548868));
#2020=CARTESIAN_POINT('',(-0.00913164776589728,-0.00254,0.0100115199548868));
#2021=CARTESIAN_POINT('',(0.,-0.01778,3.46944695195361E-18));
#2022=CARTESIAN_POINT('',(-0.0103378,-0.01778,0.015494));
#2023=CARTESIAN_POINT('',(-0.0103378,-0.01778,0.014224));
#2024=CARTESIAN_POINT('',(-0.0103378,-0.01778,0.016764));
#2025=CARTESIAN_POINT('',(0.,-0.01778,0.014224));
#2026=CARTESIAN_POINT('',(0.0201803,-0.01778,0.014224));
#2027=CARTESIAN_POINT('',(0.0201803,-0.01778,5.20417042793042E-18));
#2028=CARTESIAN_POINT('',(0.0201803,-0.01778,0.008382));
#2029=CARTESIAN_POINT('',(0.0198916969820857,-0.01778,0.008382));
#2030=CARTESIAN_POINT('',(0.0215838644653558,-0.01778,0.008382));
#2031=CARTESIAN_POINT('',(0.0215838644653558,-0.01778,0.000750903025627137));
#2032=CARTESIAN_POINT('',(0.0215838644653558,-0.01778,0.00254));
#2033=CARTESIAN_POINT('',(0.0214525666087866,-0.01778,0.00254));
#2034=CARTESIAN_POINT('',(0.0227203,-0.01778,0.00254));
#2035=CARTESIAN_POINT('',(0.0227203,-0.01778,6.93889390390723E-18));
#2036=CARTESIAN_POINT('',(0.0227203,-0.01778,0.016764));
#2037=CARTESIAN_POINT('',(0.,-0.01778,0.016764));
#2038=CARTESIAN_POINT('',(0.0201803,-0.01778,5.20417042793042E-18));
#2039=CARTESIAN_POINT('',(0.0201803,-0.012192,5.20417042793042E-18));
#2040=CARTESIAN_POINT('',(0.0201803,-0.012192,-0.00688019394874573));
#2041=CARTESIAN_POINT('',(0.0201803,-0.012192,0.008382));
#2042=CARTESIAN_POINT('',(0.0201803,-0.01778,0.008382));
#2043=CARTESIAN_POINT('',(0.0201803,-0.01778,0.014224));
#2044=CARTESIAN_POINT('',(0.0201803,-0.01778,-0.00688019394874573));
#2045=CARTESIAN_POINT('',(0.0214525666087866,-0.012192,-0.00254));
#2046=CARTESIAN_POINT('',(0.0214525666087866,-0.012192,-0.00254));
#2047=CARTESIAN_POINT('',(0.0227203,-0.012192,-0.00254));
#2048=CARTESIAN_POINT('',(0.0215838644653558,-0.012192,-0.00254));
#2049=CARTESIAN_POINT('',(0.0215838644653558,-0.012192,-0.00254));
#2050=CARTESIAN_POINT('',(0.0227203,-0.01778,-0.00254));
#2051=CARTESIAN_POINT('',(0.0214525666087866,-0.012192,0.00254));
#2052=CARTESIAN_POINT('',(0.0215838644653558,-0.012192,0.00254));
#2053=CARTESIAN_POINT('',(0.0215838644653558,-0.012192,0.00254));
#2054=CARTESIAN_POINT('',(0.0214525666087866,-0.012192,0.00254));
#2055=CARTESIAN_POINT('',(0.0227203,-0.012192,0.00254));
#2056=CARTESIAN_POINT('',(0.0227203,-0.01778,0.00254));
#2057=CARTESIAN_POINT('',(0.0102997,-0.03048,0.));
#2058=CARTESIAN_POINT('',(-0.0201803,-0.03048,0.020447));
#2059=CARTESIAN_POINT('',(-0.0201803,-0.03048,0.02413));
#2060=CARTESIAN_POINT('',(-0.0201803,-0.03048,-0.02413));
#2061=CARTESIAN_POINT('',(0.0102997,-0.03048,0.02413));
#2062=CARTESIAN_POINT('',(0.0407797,-0.03048,0.02413));
#2063=CARTESIAN_POINT('',(0.0407797,-0.03048,-3.46944695195361E-18));
#2064=CARTESIAN_POINT('',(0.0407797,-0.03048,-0.02413));
#2065=CARTESIAN_POINT('',(0.0102997,-0.03048,-0.02413));
#2066=CARTESIAN_POINT('',(-0.0227203,-0.03048,0.));
#2067=CARTESIAN_POINT('',(-0.0227203,-0.03048,-0.02032));
#2068=CARTESIAN_POINT('',(-0.0227203,-0.03048,0.02032));
#2069=CARTESIAN_POINT('',(-0.0163703,-0.03048,-0.02032));
#2070=CARTESIAN_POINT('',(-0.0163703,-0.03048,-0.02667));
#2071=CARTESIAN_POINT('',(0.0102997,-0.03048,-0.02667));
#2072=CARTESIAN_POINT('',(0.0369697,-0.03048,-0.02667));
#2073=CARTESIAN_POINT('',(0.0369697,-0.03048,-0.02032));
#2074=CARTESIAN_POINT('',(0.0433197,-0.03048,-0.02032));
#2075=CARTESIAN_POINT('',(0.0433197,-0.03048,0.));
#2076=CARTESIAN_POINT('',(0.0433197,-0.03048,0.02032));
#2077=CARTESIAN_POINT('',(0.0369697,-0.03048,0.02032));
#2078=CARTESIAN_POINT('',(0.0369697,-0.03048,0.02667));
#2079=CARTESIAN_POINT('',(0.0102997,-0.03048,0.02667));
#2080=CARTESIAN_POINT('',(-0.0163703,-0.03048,0.02667));
#2081=CARTESIAN_POINT('',(-0.0163703,-0.03048,0.02032));
#2082=CARTESIAN_POINT('',(-0.0201803,-0.01778,-1.7347234759768E-18));
#2083=CARTESIAN_POINT('',(-0.0201803,-0.01778,-0.005715));
#2084=CARTESIAN_POINT('',(-0.0201803,-0.017018,-0.005715));
#2085=CARTESIAN_POINT('',(-0.0201803,-0.009906,-0.005715));
#2086=CARTESIAN_POINT('',(-0.0201803,-0.017018,-1.7347234759768E-18));
#2087=CARTESIAN_POINT('',(-0.0201803,-0.017018,0.005715));
#2088=CARTESIAN_POINT('',(-0.0201803,-0.01778,0.005715));
#2089=CARTESIAN_POINT('',(-0.0201803,-0.009906,0.005715));
#2090=CARTESIAN_POINT('',(-0.0201803,-0.009906,-1.7347234759768E-18));
#2091=CARTESIAN_POINT('',(-0.0201803,-0.00254,0.020447));
#2092=CARTESIAN_POINT('',(-0.0201803,-0.00254,0.02032));
#2093=CARTESIAN_POINT('',(-0.0201803,-0.00254,0.016764));
#2094=CARTESIAN_POINT('',(-0.0201803,-0.002538,0.02032));
#2095=CARTESIAN_POINT('',(-0.0201803,-0.02667,0.02032));
#2096=CARTESIAN_POINT('',(-0.0201803,-0.02667,0.020447));
#2097=CARTESIAN_POINT('',(-0.0201803,-0.02667,0.02413));
#2098=CARTESIAN_POINT('',(-0.0201803,-0.02667,0.02413));
#2099=CARTESIAN_POINT('',(-0.0201803,-0.02667,-0.02413));
#2100=CARTESIAN_POINT('',(-0.0201803,-0.02667,-0.02413));
#2101=CARTESIAN_POINT('',(-0.0201803,-0.02667,0.020447));
#2102=CARTESIAN_POINT('',(-0.0201803,-0.02667,-0.02032));
#2103=CARTESIAN_POINT('',(-0.0201803,-0.002538,-0.02032));
#2104=CARTESIAN_POINT('',(-0.0201803,-0.00254,-0.02032));
#2105=CARTESIAN_POINT('',(-0.0201803,-0.00254,-0.020447));
#2106=CARTESIAN_POINT('',(-0.0201803,-0.01778,-3.46944695195361E-18));
#2107=CARTESIAN_POINT('',(-0.0201803,-0.01778,0.014224));
#2108=CARTESIAN_POINT('',(-0.0201803,-0.03048,0.016764));
#2109=CARTESIAN_POINT('',(0.0102997,-0.00254,0.));
#2110=CARTESIAN_POINT('',(0.0102997,-0.00254,0.02413));
#2111=CARTESIAN_POINT('',(-0.0163703,-0.00254,0.02413));
#2112=CARTESIAN_POINT('',(0.0407797,-0.00254,0.02413));
#2113=CARTESIAN_POINT('',(-0.0163703,-0.00254,0.022225));
#2114=CARTESIAN_POINT('',(-0.0163703,-0.00254,0.02032));
#2115=CARTESIAN_POINT('',(-0.0182753,-0.00254,0.02032));
#2116=CARTESIAN_POINT('',(0.,-0.00254,0.016764));
#2117=CARTESIAN_POINT('',(0.0227203,-0.00254,0.016764));
#2118=CARTESIAN_POINT('',(0.0227203,-0.00254,6.93889390390723E-18));
#2119=CARTESIAN_POINT('',(-0.0182753,-0.00254,-0.02032));
#2120=CARTESIAN_POINT('',(-0.0163703,-0.00254,-0.02032));
#2121=CARTESIAN_POINT('',(-0.0163703,-0.00254,-0.022225));
#2122=CARTESIAN_POINT('',(-0.0163703,-0.00254,-0.02413));
#2123=CARTESIAN_POINT('',(0.0102997,-0.00254,-0.02413));
#2124=CARTESIAN_POINT('',(0.0369697,-0.00254,-0.02413));
#2125=CARTESIAN_POINT('',(0.0369697,-0.00254,-0.022225));
#2126=CARTESIAN_POINT('',(0.0369697,-0.00254,-0.02032));
#2127=CARTESIAN_POINT('',(0.0388747,-0.00254,-0.02032));
#2128=CARTESIAN_POINT('',(0.0407797,-0.00254,-0.02032));
#2129=CARTESIAN_POINT('',(0.0407797,-0.00254,-3.46944695195361E-18));
#2130=CARTESIAN_POINT('',(0.0102997,-0.03048,0.02413));
#2131=CARTESIAN_POINT('',(0.0331597,-0.01524,0.02413));
#2132=CARTESIAN_POINT('',(0.0393827,-0.01524,0.02413));
#2133=CARTESIAN_POINT('',(-0.0163703,-0.002538,0.02413));
#2134=CARTESIAN_POINT('',(-0.0163703,-0.02667,0.02413));
#2135=CARTESIAN_POINT('',(0.0407797,-0.03048,0.02413));
#2136=CARTESIAN_POINT('',(0.0102997,-0.02667,0.02413));
#2137=CARTESIAN_POINT('',(0.0102997,-0.03048,-0.02413));
#2138=CARTESIAN_POINT('',(0.0369697,-0.002538,-0.02413));
#2139=CARTESIAN_POINT('',(0.0369697,-0.02667,-0.02413));
#2140=CARTESIAN_POINT('',(-0.0163703,-0.002538,-0.02413));
#2141=CARTESIAN_POINT('',(-0.0163703,-0.02667,-0.02413));
#2142=CARTESIAN_POINT('',(0.0102997,-0.02667,-0.02413));
#2143=CARTESIAN_POINT('',(0.0407797,-0.02667,-0.02413));
#2144=CARTESIAN_POINT('',(0.0407797,-0.02667,-0.02413));
#2145=CARTESIAN_POINT('',(0.0102997,-0.02667,-0.02413));
#2146=CARTESIAN_POINT('',(0.,-0.01778,3.46944695195361E-18));
#2147=CARTESIAN_POINT('',(-0.0147828,-0.01778,-0.015494));
#2148=CARTESIAN_POINT('',(0.,-0.01778,0.016764));
#2149=CARTESIAN_POINT('',(0.,-0.008636,0.016764));
#2150=CARTESIAN_POINT('',(-0.0103378,-0.008636,0.016764));
#2151=CARTESIAN_POINT('',(-0.0147828,-0.008636,0.016764));
#2152=CARTESIAN_POINT('',(-0.0103378,-0.01778,0.016764));
#2153=CARTESIAN_POINT('',(0.0227203,-0.01778,0.016764));
#2154=CARTESIAN_POINT('',(-0.0147828,-0.01778,0.016764));
#2155=CARTESIAN_POINT('',(0.0227203,-0.01778,6.93889390390723E-18));
#2156=CARTESIAN_POINT('',(0.0227203,-0.012192,6.93889390390723E-18));
#2157=CARTESIAN_POINT('',(0.,-0.01778,0.014224));
#2158=CARTESIAN_POINT('',(-0.0103378,-0.01778,0.014224));
#2159=CARTESIAN_POINT('',(-0.0103378,-0.008636,0.014224));
#2160=CARTESIAN_POINT('',(0.,-0.008636,0.014224));
#2161=CARTESIAN_POINT('',(-0.0147828,-0.008636,0.014224));
#2162=CARTESIAN_POINT('',(-0.0147828,-0.01778,0.014224));
#2163=CARTESIAN_POINT('',(-0.0227203,-0.01778,0.));
#2164=CARTESIAN_POINT('',(-0.0227203,-0.01778,-0.02032));
#2165=CARTESIAN_POINT('',(-0.0227203,-0.01778,0.02032));
#2166=CARTESIAN_POINT('',(-0.0227203,-0.017018,0.));
#2167=CARTESIAN_POINT('',(-0.0227203,-0.017018,-0.005715));
#2168=CARTESIAN_POINT('',(-0.0227203,-0.017018,0.005715));
#2169=CARTESIAN_POINT('',(-0.0227203,-0.013462,-0.005715));
#2170=CARTESIAN_POINT('',(-0.0227203,-0.009906,-0.005715));
#2171=CARTESIAN_POINT('',(-0.0227203,-0.009906,-8.67361737988404E-19));
#2172=CARTESIAN_POINT('',(-0.0227203,-0.009906,0.005715));
#2173=CARTESIAN_POINT('',(-0.0227203,-0.013462,0.005715));
#2174=CARTESIAN_POINT('',(0.0161163,-0.00889,1.7347234759768E-18));
#2175=CARTESIAN_POINT('',(0.0161163,-0.00889,-0.0020139406));
#2176=CARTESIAN_POINT('',(0.0161163,-0.00889,0.0027759406));
#2177=CARTESIAN_POINT('',(0.0059563,-0.0254,-8.67361737988404E-19));
#2178=CARTESIAN_POINT('',(0.0059563,-0.0254,0.0027759406));
#2179=CARTESIAN_POINT('',(0.0059563,-0.0254,-0.0020139406));
#2180=CARTESIAN_POINT('',(0.0130683,-0.0254,-0.00508));
#2181=CARTESIAN_POINT('',(0.0090223594,-0.0254,-0.00508));
#2182=CARTESIAN_POINT('',(0.0130502406,-0.0254,-0.00508));
#2183=CARTESIAN_POINT('',(0.0130683,-0.0254,0.005842));
#2184=CARTESIAN_POINT('',(0.0130502406,-0.0254,0.005842));
#2185=CARTESIAN_POINT('',(0.0090223594,-0.0254,0.005842));
#2186=CARTESIAN_POINT('',(0.0090223594,-0.0254,-0.0020139406));
#2187=CARTESIAN_POINT('',(0.0130502406,-0.0254,-0.0020139406));
#2188=CARTESIAN_POINT('',(0.0090223594,-0.0254,0.0027759406));
#2189=CARTESIAN_POINT('',(0.0130502406,-0.00889,0.0027759406));
#2190=CARTESIAN_POINT('',(-0.0104013,-0.013462,-0.005715));
#2191=CARTESIAN_POINT('',(-0.0104013,-0.009906,-0.005715));
#2192=CARTESIAN_POINT('',(-0.0104013,-0.017018,-0.005715));
#2193=CARTESIAN_POINT('',(-0.0104013,-0.017018,0.));
#2194=CARTESIAN_POINT('',(-0.0104013,-0.017018,0.005715));
#2195=CARTESIAN_POINT('',(-0.0104013,-0.013462,0.005715));
#2196=CARTESIAN_POINT('',(-0.0104013,-0.009906,0.005715));
#2197=CARTESIAN_POINT('',(-0.0104013,-0.009906,-8.67361737988404E-19));
#2198=CARTESIAN_POINT('',(0.0102997,-0.00254,-0.02667));
#2199=CARTESIAN_POINT('',(-0.0163703,-0.00254,-0.02667));
#2200=CARTESIAN_POINT('',(0.0369697,-0.00254,-0.02667));
#2201=CARTESIAN_POINT('',(0.0102997,-0.00254,0.02667));
#2202=CARTESIAN_POINT('',(0.0369697,-0.00254,0.02667));
#2203=CARTESIAN_POINT('',(0.0369697,-0.0201603281394639,0.02667));
#2204=CARTESIAN_POINT('',(0.0331597,-0.01524,0.02667));
#2205=CARTESIAN_POINT('',(0.0369697,-0.0103196718605361,0.02667));
#2206=CARTESIAN_POINT('',(0.0369697,-0.00254,0.02667));
#2207=CARTESIAN_POINT('',(-0.0163703,-0.00254,0.02667));
#2208=CARTESIAN_POINT('',(0.0433197,-0.00254,0.));
#2209=CARTESIAN_POINT('',(0.0433197,-0.00254,-0.02032));
#2210=CARTESIAN_POINT('',(0.0433197,-0.00254,0.02032));
#2211=CARTESIAN_POINT('',(0.000636133304393289,-0.012192,3.46944695195361E-18));
#2212=CARTESIAN_POINT('',(0.0215838644653558,-0.012192,0.000750903025627137));
#2213=CARTESIAN_POINT('',(0.0215838644653558,-0.012192,0.008382));
#2214=CARTESIAN_POINT('',(0.0198916969820857,-0.012192,0.008382));
#2215=CARTESIAN_POINT('',(0.0198916969820857,-0.012192,-0.00688019394874573));
#2216=CARTESIAN_POINT('',(0.0215838644653558,-0.012192,-0.00688019394874573));
#2217=CARTESIAN_POINT('',(0.0215838644653558,-0.012192,0.000750903025627137));
#2218=CARTESIAN_POINT('',(0.0407797,-0.03048,-3.46944695195361E-18));
#2219=CARTESIAN_POINT('',(0.0407797,-0.002538,-0.02032));
#2220=CARTESIAN_POINT('',(0.0407797,-0.02667,-0.02032));
#2221=CARTESIAN_POINT('',(0.0407797,-0.02667,-3.46944695195361E-18));
#2222=CARTESIAN_POINT('',(0.0331597,-0.01524,0.00127));
#2223=CARTESIAN_POINT('',(0.0369697,-0.0201603281394639,0.02667));
#2224=CARTESIAN_POINT('',(0.0377284471513764,-0.0195728009329839,0.02667));
#2225=CARTESIAN_POINT('',(0.0389365830154574,-0.0180811019211638,0.0264011191473187));
#2226=CARTESIAN_POINT('',(0.0396045409717588,-0.0152509217073226,0.026090274299645));
#2227=CARTESIAN_POINT('',(0.0389414235155237,-0.0124022119234889,0.0263997809382372));
#2228=CARTESIAN_POINT('',(0.0377278614997821,-0.0109067455743808,0.02667));
#2229=CARTESIAN_POINT('',(0.0369697,-0.0103196718605361,0.02667));
#2230=CARTESIAN_POINT('',(-0.0182753,-0.002538,-0.02032));
#2231=CARTESIAN_POINT('',(-0.0182753,-0.02667,-0.02032));
#2232=CARTESIAN_POINT('',(-0.0163703,-0.02667,-0.02032));
#2233=CARTESIAN_POINT('',(-0.0163703,-0.002538,-0.02032));
#2234=CARTESIAN_POINT('',(-0.0163703,-0.002538,-0.022225));
#2235=CARTESIAN_POINT('',(-0.0163703,-0.02667,-0.022225));
#2236=CARTESIAN_POINT('',(0.0388747,-0.002538,-0.02032));
#2237=CARTESIAN_POINT('',(0.0388747,-0.02667,-0.02032));
#2238=CARTESIAN_POINT('',(0.0369697,-0.02667,-0.02032));
#2239=CARTESIAN_POINT('',(0.0369697,-0.002538,-0.02032));
#2240=CARTESIAN_POINT('',(0.0369697,-0.002538,-0.022225));
#2241=CARTESIAN_POINT('',(0.0369697,-0.02667,-0.022225));
#2242=CARTESIAN_POINT('',(-0.0182753,-0.002538,0.02032));
#2243=CARTESIAN_POINT('',(-0.0182753,-0.02667,0.02032));
#2244=CARTESIAN_POINT('',(-0.0163703,-0.02667,0.02032));
#2245=CARTESIAN_POINT('',(-0.0163703,-0.002538,0.02032));
#2246=CARTESIAN_POINT('',(-0.0163703,-0.002538,0.022225));
#2247=CARTESIAN_POINT('',(-0.0163703,-0.02667,0.022225));
#2248=CARTESIAN_POINT('',(0.0102997,-0.02667,0.));
#2249=CARTESIAN_POINT('',(0.0102997,-0.02667,0.));
#2250=CARTESIAN_POINT('',(0.0102997,-0.02667,0.));
#2251=CARTESIAN_POINT('',(0.0215838644653558,-0.01219,0.000750903025627137));
#2252=CARTESIAN_POINT('',(0.0215838644653558,-0.01219,0.008382));
#2253=CARTESIAN_POINT('',(0.0198916969820857,-0.01219,0.008382));
#2254=CARTESIAN_POINT('',(0.0215838644653558,-0.01219,0.000750903025627137));
#2255=CARTESIAN_POINT('',(0.0215838644653558,-0.01219,-0.00688019394874573));
#2256=CARTESIAN_POINT('',(0.0198916969820857,-0.01219,-0.00688019394874573));
#2257=CARTESIAN_POINT('',(-0.00928012781101049,-0.0254,0.00762));
#2258=CARTESIAN_POINT('',(-0.00913164776589728,0.,0.00762));
#2259=CARTESIAN_POINT('',(-0.0094286078561237,-0.0254,0.00762));
#2260=CARTESIAN_POINT('',(-0.0118201278110105,-0.0254,0.01016));
#2261=CARTESIAN_POINT('',(-0.0118201278110105,-0.00254,0.0103084800451132));
#2262=CARTESIAN_POINT('',(-0.0118201278110105,-0.0254,0.0100115199548868));
#2263=CARTESIAN_POINT('',(-0.00928012781101049,-0.0254,0.0127));
#2264=CARTESIAN_POINT('',(-0.0094286078561237,0.,0.0127));
#2265=CARTESIAN_POINT('',(-0.00913164776589728,-0.0254,0.0127));
#2266=CARTESIAN_POINT('',(-0.00674012781101049,-0.0254,0.01016));
#2267=CARTESIAN_POINT('',(-0.00674012781101049,-0.0254,0.0103084800451132));
#2268=CARTESIAN_POINT('',(-0.00674012781101049,-0.00254,0.0100115199548868));
#2269=CARTESIAN_POINT('',(-0.0094286078561237,-0.0254,0.0103084800451132));
#2270=CARTESIAN_POINT('',(-0.00913164776589728,-0.0254,0.0103084800451132));
#2271=CARTESIAN_POINT('',(-0.00913164776589728,-0.0254,0.0100115199548868));
#2272=CARTESIAN_POINT('',(-0.0094286078561237,-0.0254,0.0100115199548868));
#2273=CARTESIAN_POINT('',(-0.0163703,-0.00254,-0.02032));
#2274=CARTESIAN_POINT('',(0.0369697,-0.00254,-0.02032));
#2275=CARTESIAN_POINT('',(0.0369697,-0.00254,0.02032));
#2276=CARTESIAN_POINT('',(-0.0163703,-0.01778,0.02032));
#2277=CARTESIAN_POINT('',(-0.0103378,-0.008636,0.015494));
#2278=CARTESIAN_POINT('',(-0.0103378,-0.008636,0.015494));
#2279=CARTESIAN_POINT('',(-0.0147828,-0.008636,0.015494));
#2280=CARTESIAN_POINT('',(-0.0147828,-0.008636,0.015494));
#2281=CARTESIAN_POINT('',(0.00127,-0.008636,0.));
#2282=CARTESIAN_POINT('',(-0.0103378,-0.008636,-0.015494));
#2283=CARTESIAN_POINT('',(-0.0103378,-0.008636,-0.015494));
#2284=CARTESIAN_POINT('',(-0.0147828,-0.008636,-0.015494));
#2285=CARTESIAN_POINT('',(-0.0147828,-0.008636,-0.015494));
#2286=CARTESIAN_POINT('',(0.00127,-0.008636,0.));
#2287=MECHANICAL_DESIGN_GEOMETRIC_PRESENTATION_REPRESENTATION('',(#1408),
#2288);
#2288=(
GEOMETRIC_REPRESENTATION_CONTEXT(3)
GLOBAL_UNCERTAINTY_ASSIGNED_CONTEXT((#2289))
GLOBAL_UNIT_ASSIGNED_CONTEXT((#2292,#2291,#2290))
REPRESENTATION_CONTEXT('Part 1','TOP_LEVEL_ASSEMBLY_PART')
);
#2289=UNCERTAINTY_MEASURE_WITH_UNIT(LENGTH_MEASURE(2.E-5),#2292,
'DISTANCE_ACCURACY_VALUE','Maximum Tolerance applied to model');
#2290=(
NAMED_UNIT(*)
SI_UNIT($,.STERADIAN.)
SOLID_ANGLE_UNIT()
);
#2291=(
NAMED_UNIT(*)
PLANE_ANGLE_UNIT()
SI_UNIT($,.RADIAN.)
);
#2292=(
LENGTH_UNIT()
NAMED_UNIT(*)
SI_UNIT($,.METRE.)
);
#2293=PRODUCT_DEFINITION_SHAPE('','',#2294);
#2294=PRODUCT_DEFINITION('','',#2296,#2295);
#2295=PRODUCT_DEFINITION_CONTEXT('',#2302,'design');
#2296=PRODUCT_DEFINITION_FORMATION_WITH_SPECIFIED_SOURCE('','',#2298,
 .NOT_KNOWN.);
#2297=PRODUCT_RELATED_PRODUCT_CATEGORY('','',(#2298));
#2298=PRODUCT('Part 1','Part 1','Part 1',(#2300));
#2299=PRODUCT_CATEGORY('','');
#2300=PRODUCT_CONTEXT('',#2302,'mechanical');
#2301=APPLICATION_PROTOCOL_DEFINITION('international standard',
'ap242_managed_model_based_3d_engineering',2020,#2302);
#2302=APPLICATION_CONTEXT('managed model based 3d engineering');
ENDSEC;
END-ISO-10303-21;
